<?xml version="1.0" encoding="UTF-8" standalone="no"?>
<!-- Created with Inkscape (http://www.inkscape.org/) -->
<svg xmlns:dc="http://purl.org/dc/elements/1.1/" xmlns:cc="http://web.resource.org/cc/" xmlns:rdf="http://www.w3.org/1999/02/22-rdf-syntax-ns#" xmlns:svg="http://www.w3.org/2000/svg" xmlns="http://www.w3.org/2000/svg" xmlns:xlink="http://www.w3.org/1999/xlink" xmlns:sodipodi="http://sodipodi.sourceforge.net/DTD/sodipodi-0.dtd" xmlns:inkscape="http://www.inkscape.org/namespaces/inkscape" width="469" height="388" id="svg2" sodipodi:version="0.32" inkscape:version="0.44.1" version="1.0" sodipodi:docbase="c:\temp" sodipodi:docname="Turkish_Strait_disambig.svg">
  <defs id="defs4">
    <linearGradient id="linearGradient10905">
      <stop id="stop10907" offset="0" style="stop-color: rgb(235, 0, 0); stop-opacity: 1;"/>
      <stop id="stop10909" offset="1" style="stop-color: rgb(40, 210, 65); stop-opacity: 0;"/>
    </linearGradient>
    <linearGradient id="linearGradient2924">
      <stop style="stop-color: rgb(255, 230, 5); stop-opacity: 1;" offset="0" id="stop2926"/>
      <stop style="stop-color: rgb(40, 210, 65); stop-opacity: 0;" offset="1" id="stop2928"/>
    </linearGradient>
    <style type="text/css" id="style4">
       .city{font-size:22px;font-style:normal;font-variant:normal;font-weight:normal;font-stretch:normal;text-align:start;line-height:100%;writing-mode:lr-tb;text-anchor:start;opacity:1;fill:black;fill-opacity:1;fill-rule:nonzero;stroke:none;stroke-width:10;stroke-linecap:butt;stroke-linejoin:miter;stroke-miterlimit:2;stroke-dasharray:none;stroke-dashoffset:0;stroke-opacity:1;font-family:Arial}
      </style>
    <radialGradient inkscape:collect="always" xlink:href="#linearGradient10905" id="radialGradient2930" cx="310" cy="154" fx="310" fy="154" r="13" gradientTransform="matrix(1, 0, 0, 1.61539, 0, -94.7692)" gradientUnits="userSpaceOnUse"/>
    <radialGradient inkscape:collect="always" xlink:href="#linearGradient2924" id="radialGradient8248" gradientUnits="userSpaceOnUse" gradientTransform="matrix(1, 0, 0, 1.61539, 0, -94.7692)" cx="310" cy="154" fx="310" fy="154" r="13"/>
  </defs>
  <sodipodi:namedview id="base" pagecolor="#ffffff" bordercolor="#666666" borderopacity="1.0" inkscape:pageopacity="0.0" inkscape:pageshadow="2" inkscape:zoom="1.4142136" inkscape:cx="541.31101" inkscape:cy="111.52497" inkscape:document-units="px" inkscape:current-layer="layer2" inkscape:window-width="1920" inkscape:window-height="1031" inkscape:window-x="-4" inkscape:window-y="-4" width="1250px" height="650px"/>
  <metadata id="metadata7">
    <rdf:RDF>
      <cc:Work rdf:about="">
        <dc:format>image/svg+xml</dc:format>
        <dc:type rdf:resource="http://purl.org/dc/dcmitype/StillImage"/>
        <cc:license rdf:resource="http://creativecommons.org/licenses/by-nc/2.5/"/>
        <dc:title>Treaty of Sevres</dc:title>
        <dc:date>Dec 2006</dc:date>
        <dc:creator>
          <cc:Agent>
            <dc:title>Thire aka Thomas Steiner</dc:title>
          </cc:Agent>
        </dc:creator>
        <dc:language>de</dc:language>
        <dc:subject>
          <rdf:Bag>
            <rdf:li>Turkey</rdf:li>
            <rdf:li>Treaty of Sevres</rdf:li>
            <rdf:li>Ottoman Empire</rdf:li>
            <rdf:li/>
          </rdf:Bag>
        </dc:subject>
      </cc:Work>
      <cc:License rdf:about="http://creativecommons.org/licenses/by-nc/2.5/">
        <cc:permits rdf:resource="http://web.resource.org/cc/Reproduction"/>
        <cc:permits rdf:resource="http://web.resource.org/cc/Distribution"/>
        <cc:requires rdf:resource="http://web.resource.org/cc/Notice"/>
        <cc:requires rdf:resource="http://web.resource.org/cc/Attribution"/>
        <cc:prohibits rdf:resource="http://web.resource.org/cc/CommercialUse"/>
        <cc:permits rdf:resource="http://web.resource.org/cc/DerivativeWorks"/>
      </cc:License>
    </rdf:RDF>
  </metadata>
  <g inkscape:label="Karte" inkscape:groupmode="layer" id="layer1" transform="translate(228.714, -154.291)" style="display: inline;"/>
  <g inkscape:groupmode="layer" id="layer2" inkscape:label="beschriftung" style="display: inline;" transform="translate(3, 33.5)">
    <rect style="fill: rgb(197, 206, 254); fill-opacity: 1; fill-rule: nonzero; stroke: none; stroke-opacity: 1; display: inline;" id="rect18741" width="1282.7147" height="705.19617" x="-16.357361" y="-39.942692"/>
    <path id="path20132" style="fill: rgb(147, 138, 125); fill-opacity: 1; fill-rule: nonzero; stroke: none; stroke-width: 0.5; stroke-linecap: round; stroke-linejoin: round; stroke-miterlimit: 2; stroke-dashoffset: 0pt; stroke-opacity: 1; display: inline;" d="M -8.925832,-36.960779 L -6.894582,38.601721 L -6.675832,103.25797 L -5.144582,103.13297 L -3.269582,172.03922 L -3.113332,187.35172 C -3.113332,187.35172 -2.212482,187.35173 -0.675832,187.35172 C 0.860808,187.35172 3.011668,192.57047 3.011668,192.57047 L 6.105418,198.72672 L 10.386668,205.47672 L 13.792918,209.47672 L 18.074168,207.94547 L 20.855418,201.78922 L 13.792918,192.88297 L 4.574168,183.35172 L 7.011668,179.66422 C 7.011668,179.66422 11.323948,179.04439 13.167918,179.35172 C 15.011898,179.65905 17.157358,180.58081 18.386668,181.19547 C 19.615978,181.81013 22.074168,185.19547 22.074168,185.19547 C 22.074168,185.19547 26.084298,185.79439 28.542918,186.10172 C 31.001548,186.40904 30.074168,191.94547 30.074168,191.94547 L 38.074168,200.85172 L 42.042918,200.25797 C 42.042918,200.25797 40.220078,192.58105 39.605418,191.35172 C 38.990768,190.12241 33.449168,182.41422 33.449168,182.41422 L 26.074168,176.60172 L 21.167918,173.19547 L 20.542918,178.72672 L 15.636668,175.35172 L 12.855418,167.66422 L 18.386668,163.97672 C 18.386668,163.97672 15.006718,163.05496 12.855418,162.13297 C 10.704108,161.21099 10.105418,158.13297 10.105418,158.13297 L 7.636668,153.22672 L 12.230418,148.32047 L 17.480418,148.32047 C 17.480418,148.32047 28.844848,153.84654 30.074168,153.53922 C 31.303478,153.2319 36.824168,151.38297 36.824168,151.38297 C 36.824168,151.38297 41.448948,148.93513 43.292918,148.32047 C 45.136888,147.70581 45.136668,146.47672 45.136668,146.47672 L 45.730418,143.10172 L 52.824168,140.00797 L 57.417918,140.00797 L 59.574168,143.38297 L 63.261668,148.00797 C 63.261668,148.00797 66.938608,149.22672 68.167918,149.22672 C 69.397238,149.22672 71.855418,148.32048 71.855418,148.32047 L 77.699168,145.53922 L 83.855418,142.78922 L 89.386668,140.63297 L 91.542918,144.94547 L 98.292918,148.00797 L 105.35542,148.00797 L 110.88667,152.91422 L 115.51167,155.38297 L 119.79292,154.75797 L 130.26167,158.44547 L 138.85542,159.97672 L 140.38667,160.91422 L 141.01167,165.50797 L 151.54292,160.25797 L 156.91792,155.78922 L 166.29292,149.16422 L 161.23042,139.47672 L 164.48042,132.57047 L 168.63667,130.57047 L 174.32417,126.72672 L 178.79292,125.00797 L 177.73042,103.03922 L 165.60542,93.820471 L 167.82417,93.289221 L 184.13667,82.414221 L 211.76167,76.070471 L 228.54292,88.757971 L 259.82417,86.039221 L 262.54292,83.320471 L 255.29292,73.351721 L 247.57417,64.757971 L 248.04292,60.664221 L 243.51167,49.789221 L 234.88667,47.976721 L 238.51167,42.070471 L 243.51167,42.070471 L 244.41792,38.445471 L 248.04292,39.820471 L 248.94917,34.820471 L 252.10542,34.820471 L 256.63667,33.007971 L 256.63667,27.132971 L 260.26167,18.070471 L 258.91792,12.164221 L 263.44917,4.914221 L 262.07417,1.757971 L 270.23042,-5.960779 L 271.54292,-17.585779 L 271.66792,-17.679529 L 271.66792,-18.804529 L 272.51167,-26.335779 L 271.66792,-26.367029 L 271.66792,-32.523279 L -8.925832,-36.960779 z M 1245.1367,-9.335779 L 1029.668,-7.273279 L 939.73042,-7.273279 L 948.29297,-6.492029 L 938.26167,-6.398279 L 955.01167,1.757971 L 962.73047,4.476721 L 965.01167,1.757971 L 969.98047,4.476721 L 976.32417,4.476721 L 981.76167,18.070471 L 980.41797,22.601721 L 984.94917,28.039221 L 998.98047,29.851721 L 1004.418,39.351721 L 1008.0117,52.257971 L 1012.5742,61.039221 L 1013.7617,70.289221 L 1021.1992,86.039221 L 1023.1992,97.601721 L 1018.0117,107.78922 L 1013.4805,113.22672 L 1012.5742,120.03922 L 1028.4492,127.72672 L 1067.418,124.57047 L 1082.3867,123.19547 L 1108.668,138.60172 L 1118.2305,138.22672 L 1114.1055,139.07047 L 1133.1367,168.53922 L 1126.793,204.32047 L 1144.0117,219.72672 L 1180.7305,226.97672 L 1191.543,231.88297 L 1179.8242,251.91422 L 1160.3242,263.69547 L 1181.168,340.28922 L 1186.6055,382.88297 L 1214.6992,411.88297 L 1224.668,426.41422 L 1225.043,426.57047 L 1224.8867,426.69547 L 1224.668,426.41422 L 1211.543,420.97672 L 1196.1367,415.97672 L 1168.9492,415.07047 L 1097.793,418.69547 L 1088.5117,434.35172 L 1097.2617,442.75797 L 1095.8242,442.60172 L 1092.0742,439.00797 L 1083.293,443.16422 L 1088.5117,434.35172 L 1076.4805,422.78922 L 994.91797,440.91422 L 912.88667,475.78922 L 867.57417,473.53922 L 833.57417,463.57047 L 796.41792,480.78922 L 771.91792,484.41422 L 744.73042,473.53922 L 729.32417,500.72672 L 708.48042,538.78922 L 700.85542,546.03922 L 702.69917,549.03922 L 698.85542,556.72672 L 698.54292,565.72672 L 694.35542,573.41422 L 694.04292,578.22672 L 701.10542,584.28922 L 704.94917,589.10172 L 703.98042,598.41422 L 702.07417,606.10172 L 701.73042,615.07047 L 701.73042,621.78922 L 703.66792,632.38297 L 705.91792,638.13297 L 700.13667,651.44547 L 701.38667,651.44547 L 700.73042,651.88297 L 721.13667,651.66422 L 1027.793,654.91422 L 1122.043,654.91422 L 1201.8242,655.03922 L 1218.9492,655.57047 L 1264.8867,659.32047 L 1261.918,-7.273279 L 1245.1055,-7.273279 L 1245.1367,-9.335779 z M 101.79292,123.32047 L 102.63667,123.35172 L 102.07417,123.50797 L 101.79292,123.32047 z M 1197.8867,234.75797 L 1204.7305,237.88297 L 1206.7305,239.60172 L 1206.3867,240.16422 L 1197.8867,234.75797 z M 480.11977,603.9246 L 483.15605,602.9125 L 486.44535,605.44274 L 489.73465,605.94878 L 491.50582,605.69576 L 494.03605,601.64739 L 497.07233,597.85204 L 503.65094,597.34599 L 512.25373,597.85204 L 516.30211,599.37018 L 519.84443,592.28552 L 521.36257,588.49017 L 518.83234,583.4297 L 520.35048,581.65854 L 524.14583,585.70691 L 531.48351,586.46598 L 540.0863,585.20087 L 549.95421,585.20087 C 549.95421,585.20087 556.27979,586.46598 558.05096,586.46598 C 559.82212,586.46598 566.40073,585.45389 566.40073,585.45389 L 570.19608,582.16459 L 576.52166,581.91156 L 584.11236,580.1404 L 590.18492,576.09203 L 592.20911,575.58598 L 596.51051,571.28458 L 602.07702,570.52551 L 608.65563,565.97109 L 611.69191,565.46505 L 619.78865,562.42877 L 619.02958,565.71807 L 615.74028,568.2483 L 611.94493,569.00737 L 607.13749,572.5497 L 603.34214,577.35714 L 596.25748,581.15249 L 592.20911,583.17668 L 588.16074,588.23715 L 584.36539,588.99622 L 581.07608,589.50226 L 578.79887,592.79157 L 578.29283,597.59901 L 582.3412,603.67157 C 582.3412,603.67157 585.6305,609.74413 586.38957,610.75623 C 587.14864,611.76832 589.42585,615.81669 589.42585,615.81669 L 588.91981,617.33483 L 584.61841,615.05762 L 582.3412,614.04553 L 579.55794,614.04553 L 577.02771,615.81669 L 575.50957,616.32274 L 572.72631,615.81669 L 569.43701,613.53948 L 567.41282,613.53948 L 564.62956,615.56367 L 564.12352,617.33483 L 564.12352,620.37111 L 563.11142,622.3953 L 546.66491,630.99809 L 541.60444,632.76926 L 529.45932,632.76926 L 525.91699,634.54042 C 525.91699,634.54042 525.91699,637.5767 525.91699,638.58879 C 525.91699,639.60089 525.91699,643.14321 525.91699,643.14321 L 524.65188,644.15531 L 521.6156,641.11903 L 520.35048,641.62507 L 518.57932,639.34786 L 517.56722,635.29949 C 517.56722,635.29949 508.96443,635.80554 507.69931,636.05856 C 506.4342,636.31158 502.1328,636.05856 499.85559,635.29949 C 497.57838,634.54042 494.03605,632.26321 494.03605,632.26321 C 494.03605,632.26321 492.51791,630.49205 490.74675,630.49205 C 488.97558,630.49205 488.46954,630.74507 488.46954,630.74507 L 487.71047,626.94972 L 485.9393,622.14228 L 483.15605,619.106 L 481.89093,615.05762 L 482.65,610.75623 L 481.63791,607.71995 L 480.11977,603.9246 z M -11.504602,553.31993 L 0.134478,553.0669 C 0.134478,553.0669 7.978198,553.31993 9.496338,552.81388 C 11.014478,552.30783 13.291688,550.28365 14.556808,550.28365 C 15.821928,550.28365 21.894488,550.28365 21.894488,550.28365 C 21.894488,550.28365 26.701928,552.30783 28.473088,552.56086 C 30.244258,552.81388 35.304718,551.54876 36.316818,551.54876 C 37.328908,551.54876 40.618208,552.30783 40.871238,553.31993 C 41.124258,554.33202 40.618208,557.11528 40.618208,557.11528 C 40.618208,557.11528 46.184728,559.39249 47.955888,559.64551 C 49.727058,559.89853 56.558688,560.40458 59.341938,560.6576 C 62.125198,560.91063 62.884268,563.44086 62.884268,563.44086 C 62.884268,563.44086 62.884268,565.71807 65.161478,565.71807 C 67.438688,565.71807 69.209848,564.959 70.727988,564.70598 C 72.246128,564.45295 76.547528,562.93481 78.065668,562.93481 C 79.583808,562.93481 81.861018,563.18784 83.885208,563.44086 C 85.909388,563.69388 87.933578,562.42877 86.668458,564.19993 C 85.403348,565.97109 80.342878,570.77854 80.342878,570.77854 L 78.824738,575.58598 C 78.824738,575.58598 79.583808,576.34505 80.595898,577.10412 C 81.607998,577.86319 81.861018,579.38133 84.391248,579.63435 C 86.921488,579.88738 90.463808,578.87528 91.981948,578.36924 C 93.500088,577.86319 96.536368,576.34505 98.813578,576.09203 C 101.09079,575.839 102.60893,575.58598 105.39219,575.58598 C 108.17545,575.58598 109.44056,576.59807 109.44056,576.59807 L 110.70568,577.10412 L 116.01917,571.79063 L 121.07964,570.77854 L 118.04336,576.09203 C 118.04336,576.09203 117.28429,576.8511 117.79034,578.11621 C 118.29638,579.38133 119.5615,580.89947 119.5615,580.89947 L 116.52522,582.41761 L 115.76615,585.20087 L 115.00708,588.74319 L 113.48894,591.27343 L 107.92242,592.0325 L 102.35591,592.28552 C 102.35591,592.28552 101.34382,590.76738 99.825678,590.51436 C 98.307538,590.26133 84.391248,589.50226 84.391248,589.50226 C 84.391248,589.50226 60.101008,586.21296 58.835898,586.21296 C 57.570778,586.21296 52.763338,586.21296 52.763338,586.21296 L 49.474028,587.47808 C 49.474028,587.47808 47.449838,588.74319 45.425658,588.74319 C 43.401468,588.74319 24.171698,588.49017 23.159598,588.49017 C 22.147508,588.49017 17.087038,588.23715 17.087038,588.23715 L 19.364248,578.62226 L 18.099138,575.839 C 18.099138,575.839 15.315878,575.33296 13.038668,575.07993 C 10.761458,574.82691 8.231228,571.79063 7.219128,571.28458 C 6.207038,570.77854 4.688898,569.2604 2.411688,568.75435 C 0.134478,568.2483 -3.913892,565.71807 -6.697152,565.71807 C -9.480412,565.71807 -11.757622,562.17574 -11.757622,562.17574 L -10.745532,557.87435 L -11.757622,554.58504 L -11.504602,553.31993 z M 174.46756,532.82504 C 174.46756,532.82504 169.91314,537.12643 169.66012,538.39155 C 169.4071,539.65667 167.38291,544.97016 167.38291,544.97016 C 167.38291,544.97016 166.87686,549.52458 167.12989,550.53667 C 167.38291,551.54876 169.66012,553.57295 169.66012,553.57295 L 173.70849,552.05481 L 174.97361,546.4883 C 174.97361,546.4883 174.21454,543.19899 174.97361,541.93388 C 175.73268,540.66876 177.75687,538.13853 177.75687,538.13853 L 177.75687,534.5962 L 174.46756,532.82504 z M 178.00989,525.48736 L 176.23873,528.27062 L 176.9978,530.2948 L 179.27501,529.78876 L 179.78106,527.0055 L 178.00989,525.48736 z M 159.28616,558.88644 L 155.23779,560.91063 L 152.45453,564.70598 L 152.20151,568.2483 C 152.20151,568.2483 151.69546,569.51342 153.97267,570.52551 C 156.24988,571.53761 158.52709,571.28458 158.52709,571.28458 L 155.74384,567.23621 C 155.74384,567.23621 155.74384,564.45295 156.75593,563.69388 C 157.76802,562.93481 158.78012,563.44086 160.04523,562.42877 C 161.31035,561.41667 162.32244,559.64551 162.32244,559.64551 L 160.55128,558.12737 L 159.28616,558.88644 z M 236.20526,494.87153 L 231.65084,497.14874 L 222.79502,499.42595 L 219.2527,502.71526 L 214.69828,506.76363 L 211.91502,511.31805 L 210.6499,515.61945 C 210.6499,515.61945 211.40897,517.39061 211.40897,518.4027 C 211.40897,519.4148 211.662,520.42689 211.15595,521.69201 C 210.6499,522.95712 209.13176,524.98131 208.87874,526.24643 C 208.62572,527.51154 208.62572,528.77666 208.62572,529.78876 C 208.62572,530.80085 208.37269,531.81294 210.14386,532.57201 C 211.91502,533.33108 216.46944,533.33108 216.46944,533.33108 C 216.46944,533.33108 220.77084,526.49945 222.03595,525.9934 C 223.30107,525.48736 225.8313,522.19805 227.60247,522.7041 C 229.37363,523.21015 230.38572,524.98131 231.39782,523.96922 C 232.40991,522.95712 232.66293,521.43898 232.91596,520.17387 C 233.16898,518.90875 232.66293,515.36642 233.67503,514.86038 C 234.68712,514.35433 236.45828,514.10131 236.45828,514.10131 C 236.45828,514.10131 237.47038,514.86038 237.7234,513.59526 C 237.97642,512.33014 237.97642,510.55898 237.97642,510.55898 C 237.97642,510.55898 237.21735,508.28177 237.97642,507.26968 C 238.73549,506.25758 240.25363,505.24549 241.0127,504.2334 C 241.77177,503.2213 243.03689,501.19712 243.03689,500.18502 C 243.03689,499.17293 243.79596,496.89572 242.27782,496.13665 C 240.75968,495.37758 238.73549,494.61851 237.7234,494.61851 C 236.71131,494.61851 235.69921,494.61851 236.20526,494.87153 z M 200.78199,503.72735 L 199.26385,504.48642 C 199.26385,504.48642 198.75781,506.51061 200.02292,506.76363 C 201.28804,507.01665 202.80618,507.01665 202.80618,507.01665 M 191.92618,490.06409 L 187.37176,489.81107 L 188.63687,494.61851 L 192.93827,496.89572 L 195.97455,495.88363 L 194.20339,492.59432 L 191.92618,490.06409 z M 181.04617,478.17199 L 179.27501,482.22037 L 182.56431,483.99153 L 184.5885,482.47339 L 184.08245,480.19618 L 181.04617,478.17199 z M 186.35966,455.90594 L 182.31129,456.91803 L 178.26292,458.94222 C 178.26292,458.94222 176.23873,460.71338 175.22663,460.9664 C 174.21454,461.21943 169.91314,462.23152 169.91314,462.23152 L 167.12989,464.00269 L 164.85268,465.77385 L 164.59965,468.81013 C 164.59965,468.81013 167.12989,470.07525 168.395,470.07525 C 169.66012,470.07525 173.96152,466.78594 173.96152,466.78594 L 176.9978,467.29199 C 176.9978,467.29199 182.31129,467.54501 183.32338,467.03897 C 184.33548,466.53292 187.37176,464.76176 187.37176,464.76176 L 190.15501,461.72547 L 190.66106,458.43617 L 188.38385,456.66501 L 186.35966,455.90594 z M 167.88896,441.48361 L 166.62384,444.26686 L 165.35872,447.30314 C 165.35872,447.30314 164.09361,448.82128 165.86477,449.32733 C 167.63593,449.83338 169.91314,450.33942 170.92524,450.33942 C 171.93733,450.33942 173.96152,449.32733 173.96152,449.32733 C 173.96152,449.32733 174.97361,447.05012 174.21454,446.03803 C 173.45547,445.02593 170.67221,442.74872 170.67221,442.74872 L 170.16617,439.71244 L 167.63593,438.95337 L 167.88896,441.48361 z M 133.47778,465.01478 C 133.47778,465.01478 132.46569,467.79804 131.4536,467.79804 C 130.4415,467.79804 129.68243,468.05106 129.68243,468.05106 L 127.65825,466.78594 L 124.87499,466.78594 L 124.62197,470.07525 L 125.88708,473.11153 C 125.88708,473.11153 128.41732,474.37664 129.42941,473.61757 C 130.4415,472.8585 130.94755,471.84641 131.95964,471.59339 C 132.97174,471.34036 134.99592,470.58129 134.99592,470.58129 L 137.02011,469.06315 L 136.00802,466.78594 L 133.47778,465.01478 z M 177.75687,422.50686 C 177.75687,422.50686 174.97361,425.03709 175.9857,425.54314 C 176.9978,426.04918 178.00989,426.30221 178.00989,426.30221 L 179.02199,424.53104 L 177.75687,422.50686 z M 172.94942,409.09662 L 170.67221,409.09662 L 169.15407,411.12081 L 171.93733,412.89197 L 174.21454,412.1329 L 172.94942,409.09662 z M 147.14104,414.91616 L 146.38197,417.19337 C 146.38197,417.19337 145.11686,420.22965 146.38197,420.22965 C 147.64709,420.22965 148.65918,420.22965 148.65918,420.22965 L 149.9243,418.20546 L 148.91221,415.4222 L 147.14104,414.91616 z M 110.45266,448.82128 C 110.45266,448.82128 106.65731,451.85756 104.63312,452.86966 C 102.60893,453.88175 102.35591,454.13477 100.83777,455.39989 C 99.319628,456.66501 98.054508,458.43617 98.054508,458.43617 C 98.054508,458.43617 99.319628,460.20733 101.59684,459.95431 C 103.87405,459.70129 105.39219,457.93012 106.65731,457.17105 C 107.92242,456.41198 108.93452,455.14687 110.45266,454.3878 C 111.9708,453.62873 115.51313,451.85756 115.51313,451.85756 C 115.51313,451.85756 116.52522,450.33942 115.51313,449.58035 C 114.50103,448.82128 112.72987,448.56826 112.72987,448.56826 L 110.45266,448.82128 z M 130.18848,392.14405 C 130.18848,392.14405 128.41732,393.40917 125.88708,393.66219 C 123.35685,393.91522 120.57359,393.66219 120.57359,393.66219 L 118.29638,394.42126 C 118.29638,394.42126 117.03127,396.44545 116.2722,397.71057 C 115.51313,398.97569 115.00708,399.48173 114.75406,400.49383 C 114.50103,401.50592 114.24801,402.26499 114.24801,402.26499 L 120.57359,401.2529 C 120.57359,401.2529 122.8508,398.72266 123.8629,398.46964 C 124.87499,398.21662 126.14011,398.21662 127.91127,398.21662 C 129.68243,398.21662 133.22476,397.71057 133.22476,397.71057 L 133.22476,397.71057 L 136.26104,395.18033 L 137.52616,392.39708 M 146.38197,397.20452 L 143.59872,401.2529 L 144.10476,403.27708 L 146.635,403.53011 L 148.15314,402.77104 L 148.91221,400.49383 L 148.65918,398.72266 L 146.38197,397.20452 z M 132.46569,328.63519 L 127.91127,326.10496 C 127.91127,326.10496 124.62197,324.58682 123.60987,324.3338 C 122.59778,324.08077 119.5615,323.3217 119.5615,323.3217 L 115.2601,325.59891 C 115.2601,325.59891 116.52522,329.90031 117.28429,330.9124 C 118.04336,331.9245 119.30848,333.44264 119.30848,334.96078 C 119.30848,336.47892 118.29638,341.03334 118.29638,341.03334 L 115.76615,346.09381 L 113.74196,349.63613 C 113.74196,349.63613 115.2601,352.16637 117.03127,353.43148 C 118.80243,354.6966 118.04336,355.20265 120.57359,355.70869 C 123.10383,356.21474 126.64615,356.46776 126.64615,356.46776 C 126.64615,356.46776 126.89918,352.67241 128.16429,350.90125 C 129.42941,349.13009 130.94755,346.85288 131.4536,345.33474 C 131.95964,343.8166 132.71871,341.53939 132.46569,339.26218 C 132.21267,336.98497 132.21267,330.65938 132.21267,330.65938 L 132.46569,328.63519 z M 143.09267,269.42773 L 137.02011,271.70494 L 130.69453,276.25936 L 122.59778,276.00634 C 122.59778,276.00634 119.05545,277.52448 119.05545,278.53657 C 119.05545,279.54867 121.58569,285.11518 121.58569,285.11518 L 129.42941,288.91053 L 135.24895,285.62123 L 139.29732,282.0789 L 143.85174,282.83797 C 143.85174,282.83797 144.86383,286.12727 143.85174,286.3803 C 142.83965,286.63332 140.05639,286.88634 139.0443,287.39239 C 138.0322,287.89844 135.75499,289.6696 135.75499,289.6696 L 134.48988,293.71797 C 134.48988,293.71797 134.48988,294.98309 136.76709,295.74216 C 139.0443,296.50123 141.57453,296.24821 143.34569,297.2603 C 145.11686,298.27239 144.35779,298.01937 148.40616,299.53751 C 152.45453,301.05565 155.74384,301.05565 155.74384,301.05565 C 155.74384,301.05565 155.99686,297.51332 155.49081,296.24821 C 154.98477,294.98309 153.2136,290.17565 153.2136,290.17565 C 153.2136,290.17565 156.24988,288.65751 157.26198,290.17565 C 158.27407,291.69379 159.28616,293.971 159.28616,293.971 L 161.31035,293.71797 C 161.31035,293.71797 162.57547,291.94681 162.06942,290.68169 C 161.56337,289.41658 157.515,283.09099 157.515,283.09099 C 157.515,283.09099 151.94849,278.03053 151.69546,276.76541 C 151.44244,275.50029 152.20151,273.22308 152.20151,273.22308 C 152.20151,273.22308 152.20151,271.1989 151.18942,270.94587 C 150.17732,270.69285 145.6229,269.42773 145.6229,269.42773 L 143.09267,269.42773 z M 117.53731,181.12258 C 116.52522,180.86956 113.48894,180.11049 111.71777,180.61654 C 109.94661,181.12258 107.92242,183.14677 107.92242,183.14677 L 109.94661,186.43607 C 109.94661,186.43607 113.99499,187.95421 115.51313,187.95421 C 117.03127,187.95421 120.06755,186.6891 120.06755,186.6891 L 119.81452,183.14677 L 117.53731,181.12258 z M 98.813578,221.3533 C 98.813578,221.3533 95.271258,223.63051 95.524278,224.89562 C 95.777298,226.16074 97.548468,230.20911 97.548468,230.20911 C 97.548468,230.20911 94.006138,231.98028 92.741018,231.72725 C 91.475908,231.47423 89.704738,230.96818 90.210788,229.45004 C 90.716838,227.9319 91.981948,225.90772 92.234978,224.89562 C 92.487998,223.88353 91.222878,222.11237 91.222878,222.11237 L 86.415438,223.12446 L 87.933578,227.42586 C 87.933578,227.42586 88.439628,229.95609 86.921488,229.95609 C 85.403348,229.95609 82.620088,228.944 82.620088,228.944 L 81.354968,225.14865 L 78.318688,226.41376 C 78.318688,226.41376 76.547528,226.91981 77.306598,223.63051 C 78.065668,220.3412 78.571718,219.07609 78.571718,219.07609 C 78.571718,219.07609 76.547528,216.79888 78.065668,215.78678 C 79.583808,214.77469 81.354968,213.50957 83.885208,214.01562 C 86.415438,214.52167 87.680558,214.77469 88.945668,216.03981 C 90.210788,217.30492 90.463808,217.81097 91.981948,218.31702 C 93.500088,218.82306 94.512188,219.58213 95.777298,218.57004 C 97.042418,217.55795 96.536368,218.31702 98.307538,216.54585 C 100.0787,214.77469 100.0787,214.26864 101.09079,214.52167 C 102.10289,214.77469 102.86196,217.30492 102.86196,217.30492 L 100.58475,219.32911 L 98.813578,221.3533 z M 162.57547,430.35058 L 160.04523,429.08546 L 158.52709,432.37477 L 160.8043,434.39895 L 161.05733,436.92919 L 163.33454,437.94128 L 165.61175,436.67616 L 165.35872,434.65198 L 163.58756,432.62779 L 162.57547,430.35058 z M 156.50291,419.21755 C 156.50291,419.21755 154.98477,419.21755 155.49081,420.48267 C 155.99686,421.74779 157.26198,422.75988 157.26198,422.75988 L 158.78012,424.025 L 160.55128,424.025 C 160.55128,424.025 161.56337,423.26593 160.8043,422.25383 C 160.04523,421.24174 159.03314,420.22965 159.03314,420.22965 L 156.50291,419.21755 z M 114.24801,441.48361 L 110.45266,442.4957 L 105.89824,444.77291 C 105.89824,444.77291 105.13917,446.7971 103.62103,447.05012 C 102.10289,447.30314 97.801488,447.80919 97.801488,447.80919 L 97.042418,449.32733 C 97.042418,449.32733 98.813578,451.60454 100.58475,451.60454 C 102.35591,451.60454 105.39219,450.84547 105.39219,450.84547 C 105.39219,450.84547 104.63312,451.09849 106.91033,449.32733 C 109.18754,447.55617 111.46475,446.03803 111.46475,446.03803 L 115.2601,445.53198 L 117.03127,445.785 L 118.04336,443.50779 L 114.24801,441.48361 z "/>
    <path id="path2932" d="M 309.625,141.6875 L 314.875,145.9375 L 311,162.625 L 303.625,158.5625 L 309.625,141.6875 z " style="fill: rgb(245, 0, 0); fill-opacity: 1; fill-rule: evenodd; stroke: none; stroke-width: 1px; stroke-linecap: butt; stroke-linejoin: miter; stroke-opacity: 1;"/>
    <path id="path6474" d="M 172.25,192.625 L 183.25,204.625 L 144.25,223.375 L 143,221 L 148.25,211.625 L 154.875,198.5 L 172.25,192.625 z " style="fill: rgb(227, 228, 0); fill-opacity: 1; fill-rule: evenodd; stroke: none; stroke-width: 1px; stroke-linecap: butt; stroke-linejoin: miter; stroke-opacity: 1;"/>
    <path transform="matrix(1.10036, 2.99897, -3.55137, 2.24568, 368.915, -1071.92)" d="M 323 154 A 13 21 0 1 1  297,154 A 13 21 0 1 1  323 154 z" sodipodi:ry="21" sodipodi:rx="13" sodipodi:cy="154" sodipodi:cx="310" id="path8246" style="overflow: visible; marker: none; color: black; fill: url(#radialGradient8248) rgb(0, 0, 0); fill-opacity: 1; fill-rule: nonzero; stroke: none; stroke-width: 1; stroke-linecap: square; stroke-linejoin: round; stroke-miterlimit: 2; stroke-dasharray: none; stroke-dashoffset: 0pt; stroke-opacity: 1; visibility: visible; display: inline;" sodipodi:type="arc"/>
    <path transform="matrix(1.51617, 0.915741, -0.890643, 2.00516, -22.5189, -439.261)" d="M 323 154 A 13 21 0 1 1  297,154 A 13 21 0 1 1  323 154 z" sodipodi:ry="21" sodipodi:rx="13" sodipodi:cy="154" sodipodi:cx="310" id="path2037" style="overflow: visible; marker: none; color: black; fill: url(#radialGradient2930) rgb(0, 0, 0); fill-opacity: 1; fill-rule: nonzero; stroke: none; stroke-width: 1; stroke-linecap: square; stroke-linejoin: round; stroke-miterlimit: 2; stroke-dasharray: none; stroke-dashoffset: 0pt; stroke-opacity: 1; visibility: visible; display: inline;" sodipodi:type="arc"/>
    <path style="overflow: visible; marker: none; color: black; fill: rgb(40, 210, 65); fill-opacity: 1; fill-rule: nonzero; stroke: none; stroke-width: 1; stroke-linecap: square; stroke-linejoin: round; stroke-miterlimit: 2; stroke-dasharray: none; stroke-dashoffset: 0pt; stroke-opacity: 1; visibility: visible; display: inline;" d="M 133.9375 265.4375 L 134.1875 267.78125 L 136.78125 269.0625 L 141.1875 270.09375 L 140.65625 267.78125 L 137.03125 265.4375 L 133.9375 265.4375 z " id="path6443" transform="translate(-3, -33.5)"/>
    <path style="overflow: visible; marker: none; color: black; fill: rgb(40, 210, 65); fill-opacity: 1; fill-rule: nonzero; stroke: none; stroke-width: 1; stroke-linecap: square; stroke-linejoin: round; stroke-miterlimit: 2; stroke-dasharray: none; stroke-dashoffset: 0pt; stroke-opacity: 1; visibility: visible; display: inline;" d="M 133.15625 235.6875 L 129.53125 237 L 124.375 237.5 L 122.03125 239.5625 L 120.21875 242.15625 L 120.21875 244.21875 L 125.40625 245.78125 L 133.15625 246.3125 L 137.5625 245.28125 L 137.5625 243.46875 L 135.21875 243.1875 L 136.78125 237.5 L 133.15625 235.6875 z " id="path6441" transform="translate(-3, -33.5)"/>
    <path style="overflow: visible; marker: none; color: black; fill: rgb(40, 210, 65); fill-opacity: 1; fill-rule: nonzero; stroke: none; stroke-width: 1; stroke-linecap: square; stroke-linejoin: round; stroke-miterlimit: 2; stroke-dasharray: none; stroke-dashoffset: 0pt; stroke-opacity: 1; visibility: visible; display: inline;" d="M 229.65625 223.65625 L 228.71875 226.125 L 232.15625 228 L 233.0625 229.84375 L 233.375 228 L 229.65625 223.65625 z " id="path6439" transform="translate(-3, -33.5)"/>
    <path style="overflow: visible; marker: none; color: black; fill: rgb(40, 210, 65); fill-opacity: 1; fill-rule: nonzero; stroke: none; stroke-width: 1; stroke-linecap: square; stroke-linejoin: round; stroke-miterlimit: 2; stroke-dasharray: none; stroke-dashoffset: 0pt; stroke-opacity: 1; visibility: visible; display: inline;" d="M 236.15625 223.34375 C 233.98655 223.34375 234.3125 225.53125 234.3125 225.53125 L 238.34375 229.5625 L 238.34375 231.71875 C 238.34376 231.71875 237.10392 234.8125 238.34375 234.8125 C 239.58358 234.8125 242.6875 233.28125 242.6875 233.28125 L 244.21875 234.8125 L 247.9375 233.28125 L 252.28125 230.15625 L 253.84375 227.375 L 248.5625 225.21875 L 243 224.28125 L 236.15625 223.34375 z M 282.96875 223.34375 L 282.34375 224.25 L 282.34375 223.65625 L 280.1875 227.375 L 281.34375 227.375 L 281.71875 228 L 283.59375 227.375 L 282.96875 223.34375 z " id="path6437" transform="translate(-3, -33.5)"/>
    <path style="overflow: visible; marker: none; color: black; fill: rgb(40, 210, 65); fill-opacity: 1; fill-rule: nonzero; stroke: none; stroke-width: 1; stroke-linecap: square; stroke-linejoin: round; stroke-miterlimit: 2; stroke-dasharray: none; stroke-dashoffset: 0pt; stroke-opacity: 1; visibility: visible; display: inline;" d="M 312.78125 192.59375 L 312.78125 193.5 L 313.21875 195.9375 L 313.25 195.9375 L 316.09375 197.09375 L 320.375 201.375 L 320.40625 201.375 L 321.90625 202.15625 L 324.96875 203.6875 L 325.3125 204.46875 L 326.09375 206.25 L 326.125 206.25 L 327.15625 206.78125 L 329.25 207.84375 L 330.125 211.96875 L 334.6875 211.96875 L 334.71875 211.96875 L 339.5625 211.5625 L 341.84375 212.6875 L 345.84375 210.96875 L 346.65625 211.46875 L 348 212.28125 L 351.625 212.65625 L 352 212.6875 L 352.03125 212.6875 L 354.3125 213.96875 L 358.75 214.28125 L 361.90625 214.28125 L 363.03125 216.25 L 361.03125 216.84375 L 358.75 215.84375 L 355.875 215.5625 L 352.15625 215.40625 L 351 215.96875 L 348.4375 216.5625 L 344.4375 216.96875 L 343 217.5625 L 340.4375 217.28125 L 340.40625 217.28125 L 337.5625 214.40625 L 335.84375 216.40625 L 333.5625 217.5625 L 330.84375 216.28125 L 330.8125 216.25 L 327.6875 218.125 L 325.84375 219.125 L 325.40625 219.125 L 314.65625 218.6875 L 308.15625 219.75 L 308.375 219 L 303.09375 222.71875 L 296.28125 225.1875 L 295.65625 227.375 L 295.6875 227.375 L 299.375 228.625 L 299.40625 228.625 L 302.8125 231.40625 L 305.90625 233.5625 L 309.9375 232.03125 L 314.28125 232.65625 L 316.125 235.4375 L 313.34375 235.75 L 311.46875 238.84375 L 310.25 240.375 L 303.71875 240.6875 L 301.25 237.90625 L 295.96875 236.65625 L 291.34375 237.59375 L 287.9375 238.21875 L 281.4375 235.75 L 281.40625 235.75 L 275.53125 235.75 L 269.96875 234.1875 L 269.9375 234.1875 L 264.375 233.875 L 255.6875 233.875 L 250.09375 236.34375 L 247.03125 237.28125 L 247 237.28125 L 246.40625 235.4375 L 246.375 235.4375 L 241.4375 235.4375 L 238.9375 238.53125 L 235.5625 239.78125 L 232.75 238.53125 L 228.40625 236.96875 L 225.625 238.21875 L 221.28125 238.53125 L 213.21875 233.875 L 213.21875 228.9375 L 213.21875 228.90625 L 211.0625 225.21875 L 211.0625 225.1875 L 207.65625 225.8125 L 204.875 227.0625 L 201.75 226.125 L 199.28125 226.125 L 197.71875 228.90625 L 195.5625 230.15625 L 190.90625 229.84375 L 188.75 227.6875 L 183.15625 227.6875 L 180.375 227.375 L 177.28125 228.3125 L 176.65625 231.09375 L 168.90625 236.0625 L 166.40625 238.84375 L 163 240.6875 L 159 241.3125 L 158.96875 241.3125 L 158.96875 243.8125 L 155.5625 248.4375 L 150 253.71875 L 145.65625 254.03125 L 141.625 261.46875 L 141.9375 268.59375 L 141.9375 273.25 L 143.1875 277.28125 L 138.96875 285.34375 L 134.8125 292.78125 L 140.09375 294.625 L 147.53125 294.03125 L 154.9375 292.15625 L 155.75 292.28125 L 160.21875 293.09375 L 166.40625 291.21875 L 167.09375 291.3125 L 172.3125 292 L 177.90625 290 L 181.3125 290.3125 L 185.3125 290 L 186.25 293.09375 L 184.40625 296.8125 L 181.3125 296.8125 L 181.28125 296.8125 L 179.4375 299.59375 L 179.28125 299.6875 L 177.21875 300.84375 L 177.09375 300.875 L 176.65625 301.125 L 176.65625 301.15625 L 176.34375 303.625 L 172.625 303.9375 L 168.59375 304.25 L 166.09375 307.96875 L 166.40625 310.125 L 166.4375 310.125 L 170.75 312.3125 L 171.375 315.09375 L 171.0625 318.1875 L 171.09375 318.1875 L 174.46875 318.8125 L 178.8125 323.46875 L 180.6875 326.875 L 178.5 327.5 L 175.40625 328.40625 L 175.40625 328.4375 L 173.5625 331.5 L 173.5625 331.53125 L 173.25 335.84375 L 173.25 335.875 L 176.96875 338.65625 L 179.75 337.71875 L 183.78125 337.40625 L 186.875 339.28125 L 188.75 338.96875 L 188.75 343.59375 L 185.625 343.28125 L 182.84375 343.28125 L 182.84375 343.3125 L 182.84375 346.40625 L 180.0625 346.40625 L 179.75 348.875 L 177.875 350.71875 L 176.65625 352.28125 L 173.25 350.4375 L 170.4375 350.4375 L 167.96875 352.28125 L 167.03125 357.875 L 167.0625 357.875 L 169.53125 360.03125 L 170.75 361.59375 L 170.78125 361.59375 L 171.375 361.90625 L 172.625 362.53125 L 172.625 365.3125 L 174.46875 368.09375 L 174.5 368.09375 L 175.46875 368.65625 L 177.28125 369.65625 L 177.3125 369.90625 L 177.5625 372.75 L 177.59375 372.75 L 178.21875 373.03125 L 179.75 373.6875 L 186.15625 374.625 L 194.9375 373.6875 L 196.5 377.09375 L 189.96875 377.6875 L 186.875 376.8125 L 185.65625 376.46875 L 185.625 376.46875 L 182.21875 376.46875 L 177.28125 377.375 L 171.09375 378 L 171.0625 378 L 169.84375 375.25 L 169.0625 371.21875 L 166.40625 368.28125 L 163 374.90625 L 162.09375 379.5625 L 162.375 382.90625 L 160.75 379.65625 L 159.90625 378.03125 L 159.75 377.46875 L 159.21875 375.21875 L 159.40625 370.90625 L 161.40625 370.625 L 161.46875 366.5625 L 161.46875 366.53125 L 158.0625 363.125 L 156.8125 356.9375 L 153.40625 352.90625 L 148.75 353.21875 L 145.96875 354.4375 L 145.96875 354.46875 L 145.65625 360.34375 L 147.8125 365.90625 C 147.8125 365.90625 147.784 366.02206 147.6875 366.1875 C 147.591 366.35294 147.43032 366.56609 147.25 366.8125 C 146.88068 367.30282 146.38013 367.87244 145.75 368.1875 C 145.44005 368.34247 145.14405 368.6311 144.875 369 C 144.87017 369.00649 144.87981 369.02472 144.875 369.03125 C 144.74602 369.20992 144.61522 369.39516 144.5 369.59375 C 144.4954 369.6015 144.50457 369.61724 144.5 369.625 C 144.38547 369.82383 144.25422 370.01951 144.15625 370.21875 C 144.15224 370.22672 144.16024 370.24205 144.15625 370.25 C 144.0985 370.36824 144.05108 370.44973 144 370.5625 C 143.68532 371.23958 143.46875 371.8125 143.46875 371.8125 L 143.5 371.8125 L 148.125 371.1875 L 148.15625 371.1875 L 150.75 370.8125 L 152.84375 372.75 L 150.625 373.96875 L 150.625 374 L 150.3125 376.78125 L 148.75 377.6875 L 145 378 L 144.96875 378 L 142.25 378.3125 L 142.25 374.90625 L 138.84375 375.84375 L 139.15625 379.875 L 136.34375 381.71875 L 136.375 381.75 L 140.6875 385.125 L 140.71875 385.15625 L 141.9375 385.96875 L 144.40625 387.625 L 144.96875 388.5 L 145 388.5 L 147.5625 388.25 L 149.6875 391.03125 L 152.46875 391.65625 L 153.40625 395.375 L 158.375 396.90625 L 159.875 393.90625 L 160.9375 390.5 L 166.71875 389.78125 L 168.90625 393.8125 L 170.4375 395.375 L 171.0625 401.5625 L 171.09375 401.5625 L 176.34375 402.5 L 178.78125 402.71875 L 178.8125 402.71875 L 181.28125 403.125 L 185.3125 407.46875 L 185.34375 407.46875 L 186.25 407.65625 L 189.6875 408.40625 L 191.84375 409.03125 L 192.75 409.3125 L 194.9375 412.71875 L 194.3125 415.5 L 194.3125 415.53125 L 193.375 419.21875 L 193.875 423.78125 L 193.15625 425.9375 L 192.28125 428.0625 L 190.15625 429.375 L 181.78125 430.15625 L 181.46875 430.03125 L 180.75 429.71875 L 177.1875 429.34375 L 181.875 427.78125 L 181.84375 427.75 L 180.125 424.3125 L 176.5 425.6875 L 172 423.96875 L 171.96875 423.96875 L 166.03125 420.75 L 159.71875 424.21875 L 154.625 427 L 154.59375 427 L 155.65625 429.28125 L 155.6875 429.28125 L 162.40625 430.25 L 162.4375 430.25 L 163.59375 431.09375 L 163.625 431.09375 L 165.59375 432.5 L 170 432.59375 L 170.46875 431.9375 L 171.34375 430.75 L 174.8125 430.4375 L 179.25 432 L 180.90625 433.21875 L 185.15625 436.375 L 189.59375 438.8125 L 191.3125 441.8125 L 192.78125 442.96875 L 192.3125 444.125 L 189.875 445.125 L 189.4375 448.84375 L 189.15625 452.40625 L 187.28125 455.28125 L 188.59375 457 L 192.03125 456.5625 L 195.21875 457.09375 C 197.13788 454.87893 196.30016 458.29837 197.59375 457.5 L 197.3125 459.28125 L 199.875 460.84375 L 203.03125 459 C 203.03125 458.99999 204.04936 459.92754 203.90625 460.5 C 203.76313 461.07246 203.90625 463.15625 203.90625 463.15625 L 206.34375 463.875 L 208.625 463.28125 L 208.78125 464.09375 L 207.65625 466.84375 L 209.34375 469.59375 C 209.34375 469.59375 210.18433 471.88813 209.46875 472.03125 C 208.75318 472.17437 207.03125 469.875 207.03125 469.875 L 205.90625 472.3125 L 207.625 474.3125 L 204.75 475.59375 L 200.75 477.03125 L 197.3125 474.375 L 194.03125 473.15625 L 190.4375 475.03125 L 187.15625 478.46875 L 188.15625 483.90625 L 193.71875 485.4375 L 196.9375 482.65625 L 199.3125 481.1875 L 201.46875 483.75 L 204.90625 484.625 L 206.625 484.1875 L 208.34375 484.75 L 209.75 486.03125 L 213 485.46875 L 216.90625 485.03125 L 220.84375 485.4375 L 229.4375 485.75 L 234.5 484.96875 L 238.25 485.03125 L 241.25 484.46875 L 245.46875 484.78125 L 247.9375 485.3125 L 249.125 486.34375 L 246.96875 488.625 L 244.25 488.75 L 243.96875 491.0625 L 240.6875 492.5 L 239.09375 492.0625 L 236.09375 491.1875 L 231.53125 493.0625 L 233.65625 494.625 L 235.375 496.625 L 232.65625 496.625 L 231.9375 498.21875 L 234.25 499.0625 L 235.375 500.5 L 235.1875 502.96875 L 231.71875 503.25 L 230.1875 501.3125 L 222.59375 500.90625 L 221.8125 502.78125 L 215.8125 501.875 C 213.65214 498.31559 212.47887 499.13131 210.53125 502.4375 L 204.40625 503.90625 L 197.75 507.6875 L 199.28125 509.84375 L 211.3125 509.75 L 215.28125 506.4375 L 215.8125 504.71875 L 228.0625 505.21875 L 230.53125 505.21875 L 234.8125 505.25 L 239.09375 505.9375 L 236.8125 505.9375 L 236.09375 507.21875 L 237.25 508.8125 L 233.53125 507.9375 L 231.09375 508.09375 L 227.71875 509.5 L 233.375 510.8125 C 233.375 510.81251 236.68225 512.48808 236.09375 512.53125 C 234.14293 512.67435 232.1875 515.1875 232.1875 515.1875 L 233.40625 517.875 L 236.65625 518.03125 L 239.25 513.53125 L 240.5625 512.0625 L 243.5625 511.5625 L 245.53125 508.21875 L 246.6875 506.09375 L 244.8125 503.21875 L 244.53125 500.65625 L 246.53125 498.21875 L 249.6875 499.65625 L 251.40625 502.21875 L 254.125 503.375 L 256.125 502.9375 L 253.28125 499.9375 L 258.28125 496.90625 L 259.5625 498.9375 L 257.40625 500.65625 L 261.15625 502.78125 L 264 503.21875 L 264 499.78125 L 266 502.0625 L 267.71875 502.375 L 267.4375 498.9375 L 266.15625 497.21875 L 271.03125 491.625 L 274.59375 493.1875 L 270.15625 496.90625 L 269.3125 499.21875 L 268.875 502.0625 L 270.15625 503.65625 L 269.875 505.78125 L 267.4375 506.78125 L 268 509.9375 L 270.59375 510.53125 L 271.71875 511.8125 L 273.03125 509.9375 L 276.59375 512.25 L 277.75 514.25 L 283 516.375 L 285.75 512.6875 L 289.6875 511.125 L 293.5 513.53125 L 297.9375 516.25 L 296.34375 519.09375 L 292.34375 520.25 L 290.625 521.25 L 292.90625 523.53125 L 297.5 523.40625 L 296.78125 525.96875 L 296.625 528.25 L 294.90625 528.96875 L 295.0625 531.28125 L 297.21875 532.28125 L 297.34375 534.84375 L 295.78125 535.40625 L 297.78125 539.71875 L 302.21875 542 L 305.21875 545.15625 L 308.21875 547.71875 L 310.375 547.59375 L 311.8125 546.59375 L 313.8125 548.3125 L 315.25 550.71875 L 317.96875 550.875 L 321.53125 550.59375 L 323.40625 552.15625 L 326.25 552.03125 L 327.84375 554.03125 L 327.84375 555.46875 L 329.5625 556.46875 L 333.5625 555.875 L 336.84375 555.875 L 339 552.59375 L 341.5625 552.75 L 342.5625 551.15625 L 345.28125 551.15625 L 346.875 552.59375 L 350.15625 550.875 L 352.15625 549.15625 L 352.875 549.875 L 355.3125 550.03125 L 356.59375 547.71875 L 360.1875 546.4375 L 364.625 546.15625 L 368.625 548.59375 L 371.1875 551.03125 L 375.5625 552.90625 L 378.4375 550.84375 L 380.59375 548.59375 L 380.0625 545.59375 L 379.6875 542.53125 L 378.9375 539 L 381.75 535.1875 L 384.5 527.6875 L 383.78125 524.59375 L 384 520.5 L 385.09375 518.875 L 385.65625 513.03125 L 389.53125 507.09375 L 394.25 506.9375 L 395.65625 508.375 L 412.84375 508.09375 L 415 509.9375 L 419.71875 510.09375 L 425.71875 510.53125 L 428.3125 512.09375 L 430.15625 512.25 L 434.46875 517.25 L 438.03125 517.09375 L 449.0625 524.84375 L 451.90625 525.40625 L 456.34375 528.96875 L 460.9375 530.28125 L 468.21875 533.40625 L 471.09375 534.40625 L 477.25 541.4375 L 480.09375 545 L 481.125 548.15625 L 483.53125 550.71875 L 485.96875 553.3125 L 486.40625 556.59375 L 489.84375 561.1875 L 497 566.34375 L 502 567.625 L 506.875 569.625 L 511.15625 571.90625 L 515.6875 573.78125 L 520.8125 572.0625 L 524.65625 569.90625 L 528.1875 567.90625 L 533.34375 570.34375 L 535.21875 569.1875 L 537.1875 567.375 L 538.84375 566.84375 L 540.0625 567.46875 L 547.53125 567.1875 L 549.09375 565.75 L 552.25 565.90625 L 552.53125 567.0625 L 554.53125 567.1875 L 555.6875 565.1875 L 559.25 565.03125 L 561.40625 566.34375 L 563.96875 565.90625 L 566.53125 564.03125 L 568.5625 563.3125 L 570 564.75 L 576 560.1875 L 577.84375 556.15625 L 580.4375 553.75 L 584.9375 554.78125 L 587.59375 557.96875 L 590.53125 556.3125 L 592.59375 554.25 L 594.15625 552.75 L 593.46875 549 L 594.5 545.5 L 601.625 539.4375 L 607.1875 533.5625 L 615.0625 528.34375 L 619.03125 524.09375 L 621.21875 522.25 L 621.9375 520.09375 L 626.8125 517.8125 L 636.09375 517.25 L 640.25 518.8125 L 642.96875 522.6875 L 645.125 524.53125 L 650.84375 523.53125 L 661.59375 531.28125 L 671.59375 536.84375 L 675.03125 535.15625 L 676.78125 532.75 L 681.21875 533.84375 L 684.0625 533.6875 L 686.78125 532.6875 L 686.90625 529.84375 L 689.4375 526.625 L 691.71875 524.65625 L 687.90625 522.40625 L 687.84375 520.84375 L 689.90625 520.09375 L 695.625 520.40625 L 706.21875 515.71875 L 709.5 511.9375 L 713.53125 509.5625 L 717.8125 512.875 L 719.65625 515.90625 L 720.21875 521 L 719.53125 527.6875 L 718.40625 531.6875 L 713.6875 534.28125 L 710.53125 537 L 707.09375 541.15625 L 702.78125 543.71875 L 700.375 547 L 700.375 548.59375 L 695.78125 552.75 L 702.21875 563.75 L 708.09375 573.78125 L 703.21875 582.21875 L 709.65625 581.78125 L 710.8125 585.21875 L 716.53125 585.21875 L 720.78125 587.3125 L 721.53125 580.09375 L 726.15625 579.78125 L 729 576.21875 L 732.28125 575.21875 L 732.5625 559.90625 L 736.71875 560.46875 L 739.71875 558.3125 L 742 558.59375 L 748.59375 558.59375 L 750.4375 554.75 L 745.3125 549.4375 L 744.6875 532.1875 L 746.15625 524.25 L 746.375 520.09375 L 749.5 514.96875 L 753.03125 514.53125 L 756.3125 516.53125 L 762.03125 517.53125 L 766.46875 518.09375 L 769.90625 520.8125 L 770.78125 523.6875 L 770.1875 526.96875 L 773.21875 529.40625 L 775.78125 525.6875 L 779.78125 526.40625 L 784.09375 525.6875 L 797.25 526.40625 L 809.125 519.25 L 815.84375 518.375 L 839.46875 505.65625 L 850.0625 505.78125 L 859.9375 509.375 L 871.09375 519.96875 L 887.125 519.96875 L 889 518.53125 L 894 518.96875 L 898.875 521.8125 L 903.59375 521.53125 L 930.625 513.65625 L 936.21875 513.8125 L 954.8125 503.375 L 957.6875 502.78125 L 972.9375 492.53125 L 977.875 490.90625 L 991.3125 482.90625 L 997.1875 482.625 L 1000.5625 482.03125 L 1005.1875 481.75 L 1017.0625 482.90625 L 1019.0938 484.1875 L 1027.375 483.90625 L 1037.6875 482.03125 L 1045.4063 478.75 L 1052 478.59375 L 1060 475.15625 L 1065.4375 473.03125 L 1073.375 465.65625 L 1075.2813 464.25 L 1075.3125 464.25 L 1084.1875 466.71875 L 1084.1875 471.15625 L 1085.3438 474.875 L 1086.9063 476.875 L 1094.2188 473.15625 L 1098.5 472.59375 L 1104.9375 461.15625 L 1104.9375 461.125 L 1106.5313 456.5625 L 1110.8125 453.84375 L 1114.0938 455.84375 L 1120.9688 457.5625 L 1125.4063 454.125 L 1128.4063 454.125 L 1134.375 454.625 L 1134.4063 454.625 L 1141.4375 456.84375 L 1143.4375 454.84375 L 1145.4375 457 L 1152.875 459.71875 L 1152.9063 459.71875 L 1157 460.28125 L 1160.625 460.84375 L 1164.4688 460.84375 L 1167.3438 459.125 L 1170.9063 459.84375 L 1170.9375 459.84375 L 1172.7813 460.84375 L 1176.9375 459.4375 L 1176.9375 459.40625 L 1181.5313 453.28125 L 1183.375 451.5625 L 1191.0938 452.125 L 1197.375 455.28125 L 1198.9688 461.28125 L 1197.0938 463.28125 L 1195.25 466.4375 L 1196.25 469.71875 L 1197.8125 472 L 1197.8438 472.03125 L 1199.5313 475.59375 L 1199.5625 475.59375 L 1203.5313 476.15625 L 1203.5625 476.15625 L 1204.2813 474.3125 L 1205 470.4375 L 1209.4063 468 L 1209.4375 468 L 1219.3125 458.4375 L 1227.875 458.4375 L 1227.875 458.40625 L 1228.4688 453.40625 L 1230.9063 449.84375 L 1227.875 446.25 L 1219.875 440.8125 L 1219.8438 440.8125 L 1216.2813 439.25 L 1215.4375 427.21875 L 1212.7188 425.21875 L 1213.1563 421.9375 L 1215.1563 419.5 L 1213 417.0625 L 1208.8438 414.1875 L 1205 416.75 L 1204 412.625 L 1203.9688 412.625 L 1203.0938 411.9375 L 1201.9688 411.03125 L 1200.6875 409.625 L 1197.9688 409.1875 L 1195.0938 409.3125 L 1191.6563 408.75 L 1190.9688 408.625 L 1190.9688 402.46875 L 1194.125 396.75 L 1194.125 394.75 L 1196.8438 389.71875 L 1198.25 387.71875 L 1198.8438 379.125 L 1202.4063 375.28125 L 1201.4063 372.90625 L 1200.4063 370.5625 L 1198.8438 370.125 L 1197.25 371.40625 L 1192.25 371.6875 L 1191.6875 369.125 L 1190.6875 366.84375 L 1191.9688 361.25 L 1190.5313 357.25 L 1190.6875 353.375 L 1189.8125 351.21875 L 1188.25 350.375 L 1187.9688 347.9375 L 1187.0938 346.65625 L 1187.25 341.0625 L 1189.25 338.78125 L 1187.5313 336.625 L 1184.5313 335.34375 L 1182.375 334.1875 L 1178.6563 326.625 L 1180.9375 323.59375 L 1180.6563 315.59375 L 1177.2188 312.4375 L 1174.0625 312.03125 L 1172.9375 304.875 L 1169.0625 298.84375 L 1174.6875 298.34375 L 1176 297.3125 L 1181.1875 296.96875 L 1186.3125 297.6875 L 1189.6875 293.6875 L 1190.3438 284.375 L 1191.75 278.5625 L 1192.2188 273.15625 L 1197.875 267.5 L 1202.2813 270.125 L 1207.625 272.90625 L 1207.3125 270.40625 L 1204.2813 266.5625 L 1199.0313 263.625 L 1191.5313 254.46875 L 1187.9688 251.90625 L 1182.9375 249.625 L 1178.1875 248.96875 L 1173.6563 249.625 L 1169.9375 250.90625 L 1167.9063 250.1875 L 1163.625 252.46875 L 1156.3125 252.1875 L 1149.3125 248.625 L 1142.3125 248.1875 L 1142.1563 243.90625 L 1144.1563 242.75 L 1142.7188 238.46875 L 1142.0313 235.03125 L 1137 230.59375 L 1136.875 227.28125 L 1137.875 224.28125 L 1134 220.28125 L 1138 215.40625 L 1138.1563 213.28125 L 1141.4375 208.53125 L 1143.4375 204.8125 L 1142.5938 197.53125 L 1137.7188 191.09375 L 1137.1563 185.78125 L 1132.4375 181.78125 L 1125.2813 180.5 L 1125 176.90625 L 1124.125 170.75 L 1120.4063 167.625 L 1115.5313 167.3125 L 1111.375 169.90625 L 1107.25 164.03125 L 1105.6563 164.3125 L 1109.0938 160.3125 L 1103.9375 159.3125 L 1101.0938 156.3125 L 1097.625 155.15625 L 1090.2188 148.59375 L 1087.5 149.15625 L 1084.9063 148.28125 L 1084.7188 145.65625 L 1085.9063 142 L 1084.9063 141.4375 L 1073.4688 141.84375 L 1072.3125 143.15625 L 1071.3125 148.15625 L 1069.3125 151 L 1068.75 153.3125 L 1065.75 154.4375 L 1064.0313 154.15625 L 1061.3125 152.3125 L 1058.1563 152.59375 L 1054.8438 150.875 L 1052.5625 151.4375 L 1050.5625 151.71875 L 1049.7188 150.15625 L 1044.6875 150.28125 L 1043.125 151.4375 L 1040.4063 151.59375 L 1038.9688 150.4375 L 1036.8125 150.4375 L 1031.0938 157.4375 L 1028.375 156.03125 L 1023.375 153.3125 L 1021.8125 154.3125 L 1020.5 154.4375 L 1016.5 152.3125 L 1014.0625 151.4375 L 1013.6563 153.71875 L 1010.0625 158.3125 L 1006.625 161.1875 L 997.75 169.90625 L 994.90625 170.1875 L 990.59375 175.90625 L 983.71875 179.5 L 977.5625 179.21875 L 972.125 183.65625 L 971.84375 186.21875 L 969.125 187.21875 L 964.125 189.375 L 958.96875 189.9375 L 955.25 191.5 L 951.96875 194.8125 L 948.65625 197.25 L 936.9375 201.53125 L 936.78125 201.8125 L 931.5 198.65625 L 926.78125 198.8125 L 921.1875 198.96875 L 917.03125 195.53125 L 909.59375 196.8125 L 905.875 196.375 L 904.03125 192.375 L 900 189.9375 L 896 190.09375 L 890.125 195.8125 L 887.40625 195.25 L 884.40625 192.65625 L 882.125 192.9375 L 877.96875 195.53125 L 869.375 195.9375 L 868.09375 197.25 L 864.9375 199.09375 L 862.21875 199.09375 L 859.65625 202.8125 L 857.21875 203.6875 L 853.34375 201.53125 L 849.0625 206.40625 L 842.90625 205.53125 L 842.75 204.53125 L 840.75 205.8125 L 837.75 206.6875 L 834.59375 204.96875 L 827.3125 204.96875 L 826.03125 203.8125 L 821.71875 203.96875 L 820.59375 202.96875 L 812 202.96875 L 811.40625 200.53125 L 807 199 L 805.53125 196.40625 L 805.5625 191.9375 L 799.125 192.09375 L 794.53125 199.375 L 790.25 199.65625 L 783.21875 194.09375 L 779.0625 194.09375 L 777.0625 191.375 L 765.78125 190.9375 L 763 186.78125 L 761.46875 182.9375 L 757.1875 180.34375 L 753.46875 178.78125 L 749.15625 176.5 L 745 175.78125 L 741.15625 176.78125 L 738.71875 178.0625 L 738 180.34375 L 732.5625 184.65625 L 727.84375 185.65625 L 722.25 182.21875 L 720.53125 178.0625 L 716.25 172.90625 L 712.25 166.375 L 711.8125 158.15625 L 709.21875 153 L 702.21875 150.3125 L 695.65625 153.625 L 687.96875 156.9375 L 680.75 157.03125 C 680.75001 157.03125 677.04121 156.15625 676.46875 156.15625 C 675.8963 156.15625 673.3125 154.4375 673.3125 154.4375 L 671.03125 152.59375 L 667.71875 151.59375 L 665.15625 150.4375 L 661.90625 145.46875 L 659.6875 140.53125 L 656.9375 135.6875 L 657.125 131.75 L 658.03125 129.15625 L 660.71875 128.125 L 659.875 126.25 L 657.15625 126.8125 L 655.125 127.40625 L 651.28125 127.125 L 650.6875 122.09375 L 646.25 122.09375 L 645.25 127.25 L 638.8125 132.125 L 633.09375 133.5625 L 623.5 132.84375 L 620.5 131.5625 L 615.34375 132.25 L 607.0625 132.84375 L 606.1875 131.84375 L 603.03125 131.96875 L 601.75 130.84375 L 589.4375 130.125 L 571.84375 129.96875 L 569.28125 128.84375 L 561.40625 127.96875 L 559.8125 127.25 L 555.6875 126.96875 L 548.65625 129.84375 L 545.9375 131.6875 L 540.21875 132.6875 L 536.78125 134.5625 L 535.9375 136.125 L 529.78125 137.5625 L 524.46875 138.84375 L 520.90625 139.84375 L 515.15625 139.84375 L 509.875 142.28125 L 494.71875 150.28125 L 492.125 152.3125 L 491.125 153.71875 L 486.25 157.59375 L 482.40625 158.59375 L 473.25 162.59375 L 470.65625 164.59375 L 464.375 168.90625 L 459.5 171.1875 L 452.625 172.78125 L 446.75 176.5 L 447.1875 179.21875 L 448.78125 181.78125 L 446.46875 181.21875 L 446.46875 185.65625 L 443.625 187.9375 L 440.59375 190.65625 L 437.46875 191.8125 L 428 192.375 L 414.5625 192.8125 C 414.56251 192.8125 413.5462 192.09375 412.6875 192.09375 C 411.82883 192.09374 409.28125 191.8125 409.28125 191.8125 L 405.6875 188.9375 L 401.6875 187.9375 L 396.53125 186.78125 L 391.65625 185.65625 L 387.21875 182.78125 L 383.21875 181.625 L 382.0625 180.34375 L 381.0625 182.34375 L 379.9375 182.78125 L 378.21875 185.0625 L 374.5 185.78125 L 368.90625 184.9375 L 363.3125 185.65625 L 360.3125 185.0625 L 356.15625 183.5 L 352.75 183.21875 L 349.4375 182.78125 L 346.875 182.53125 L 342.4375 182.0625 L 342.40625 182.0625 L 338.125 181.34375 L 331.28125 179.90625 L 331.25 179.90625 L 324.25 179.90625 L 319.53125 179.1875 L 317.4375 178.71875 L 316.96875 178.625 L 316.9375 178.625 L 315.5 182.34375 L 314.65625 185.21875 L 314.65625 187.5 L 312.78125 190.65625 L 312.78125 192.03125 C 312.79289 192.13866 312.90625 192.20201 312.90625 192.3125 C 312.90625 192.42299 312.79289 192.48634 312.78125 192.59375 z " id="path6435" transform="translate(-3, -33.5)"/>
    <path style="overflow: visible; marker: none; color: black; fill: rgb(40, 210, 65); fill-opacity: 1; fill-rule: nonzero; stroke: none; stroke-width: 1; stroke-linecap: square; stroke-linejoin: round; stroke-miterlimit: 2; stroke-dasharray: none; stroke-dashoffset: 0pt; stroke-opacity: 1; visibility: visible; display: inline;" d="M 312.78125 192.59375 C 312.79289 192.48634 312.90625 192.42299 312.90625 192.3125 C 312.90625 192.20201 312.79289 192.13866 312.78125 192.03125 L 312.78125 192.59375 z " id="path6433" transform="translate(-3, -33.5)"/>
    <path style="overflow: visible; marker: none; color: black; fill: black; fill-opacity: 1; fill-rule: nonzero; stroke: none; stroke-width: 1; stroke-linecap: square; stroke-linejoin: round; stroke-miterlimit: 2; stroke-dasharray: none; stroke-dashoffset: 0pt; stroke-opacity: 1; visibility: visible; display: inline; opacity: 1;" d="M 311.53125 190 C 311.04057 189.6515 310.52223 189.3125 309.875 189.3125 C 309.04556 189.3125 308.29394 189.64356 307.75 190.1875 C 307.20606 190.73144 306.87499 191.48306 306.875 192.3125 C 306.875 193.14194 307.20606 193.89356 307.75 194.4375 C 307.79667 194.48417 307.88786 194.45646 307.9375 194.5 L 310.25 193.90625 L 311.53125 190 z " id="path6431" transform="translate(-3, -33.5)"/>
    <path style="overflow: visible; marker: none; color: black; fill: rgb(40, 210, 65); fill-opacity: 1; fill-rule: nonzero; stroke: none; stroke-width: 1; stroke-linecap: square; stroke-linejoin: round; stroke-miterlimit: 2; stroke-dasharray: none; stroke-dashoffset: 0pt; stroke-opacity: 1; visibility: visible; display: inline;" d="M 208.5625 103.09375 L 205.78125 106.1875 L 202.6875 108.65625 L 190.59375 110.53125 L 185.9375 110.53125 L 180.375 113.3125 L 180.0625 118.875 L 180.0625 118.90625 L 179.125 120.4375 L 168.28125 120.125 L 167.34375 123.53125 L 166.40625 127.5625 L 166.4375 127.5625 L 173.84375 131.90625 L 176.34375 135.3125 L 180.375 137.8125 L 180.375 149.25 L 180.375 149.28125 L 180.375 157.9375 L 177.28125 157.9375 L 175.125 155.78125 L 175.09375 155.78125 L 167.375 162.28125 L 163.03125 161.65625 L 163 161.65625 L 160.84375 175.3125 L 164.5625 179.9375 L 164.5625 179.96875 L 161.15625 184.59375 L 154.03125 188.9375 L 149.375 194.8125 L 149.375 194.84375 L 146.90625 198.53125 L 142.5625 198.84375 L 142.5625 198.875 L 142.65625 199.6875 L 143.46875 208.15625 L 143.5 208.15625 L 156.1875 211.25 L 172 210.03125 L 175.375 209.65625 L 183.78125 208.78125 L 186.25 212.8125 L 182.21875 215.90625 L 178.1875 218.6875 L 172 219.3125 L 151.21875 229.53125 L 149.375 232.9375 L 149.375 232.96875 L 150.28125 234.21875 L 151.53125 236.0625 L 150.3125 243.1875 L 145.34375 249 L 145.34375 249.03125 L 146.96875 250.28125 L 148.25 251.25 L 157.4375 244.125 L 157.4375 244.09375 L 157.125 240.40625 L 162.09375 238.21875 L 165.4375 235.1875 L 171.5 232.5 L 171.5 232.46875 L 175.125 228.84375 L 178.53125 225.21875 L 181.375 222.6875 L 192.09375 218.90625 L 196.0625 217.96875 L 196.09375 217.96875 L 198.96875 215.25 L 206.84375 214.0625 L 214.3125 209.875 L 216.03125 204.125 L 224.125 198.34375 L 227.125 190.28125 L 240.8125 187.875 L 248.5625 190.8125 L 253.21875 191.125 L 258.59375 186.5 L 268.09375 184.75 L 279.5625 187.71875 L 285.75 193.90625 L 286.71875 193 L 288.34375 191.53125 L 291.75 193.125 L 295.15625 194.90625 L 299.40625 195.875 L 305.59375 195.15625 L 307.28125 194.6875 L 307.9375 194.5 C 307.88786 194.45646 307.79667 194.48417 307.75 194.4375 C 307.20606 193.89356 306.875 193.14194 306.875 192.3125 C 306.87499 191.48306 307.20606 190.73144 307.75 190.1875 C 308.29394 189.64356 309.04556 189.3125 309.875 189.3125 C 310.52223 189.3125 311.04057 189.6515 311.53125 190 L 312.71875 186.46875 L 315.21875 179.34375 L 314.59375 175.625 L 310.5625 174.375 L 296.3125 166 L 283.28125 159.1875 L 273.875 152.53125 L 268.40625 148.65625 L 263.125 142.75 L 264.0625 137.8125 L 261.96875 134.625 L 258.8125 129.75 L 258.1875 123.53125 L 262.5 123.21875 L 262.53125 123.21875 L 262.8125 115.5 L 262.8125 115.46875 L 259.40625 113.9375 L 252.90625 114.25 L 252.125 113.625 L 251.34375 113 L 251.25 113.75 L 251.21875 113.96875 L 250.71875 117.625 L 247.6875 115.6875 L 245.875 114.5 L 245.46875 114.25 L 244.0625 114.78125 L 241.5 115.71875 L 239.59375 116.40625 L 239.5625 116.40625 L 235.84375 119.1875 L 232.625 116.40625 L 226.5625 111.15625 L 225.3125 107.125 L 220.96875 103.09375 L 218.59375 104.1875 L 216.3125 105.25 L 213.53125 105.875 L 208.59375 103.09375 L 208.5625 103.09375 z M 229.65625 211.25 L 225.9375 212.8125 L 224.6875 215.90625 L 227.1875 217.78125 L 229.96875 217.46875 L 235.5625 217.46875 L 238.03125 215.90625 L 235.25 212.5 L 229.65625 211.25 z M 224.6875 222.09375 L 223.15625 224.90625 L 225.3125 225.53125 L 224.6875 222.09375 z " id="path1961" transform="translate(-3, -33.5)"/>
    <path style="opacity: 0.86; fill: rgb(167, 187, 189); fill-opacity: 1; fill-rule: nonzero; stroke: rgb(4, 17, 224); stroke-width: 1; stroke-linecap: round; stroke-linejoin: round; stroke-miterlimit: 2; stroke-dasharray: none; stroke-dashoffset: 0pt; stroke-opacity: 1; display: inline;" d="M 864.64025,313.0064 L 876.15982,319.35392 L 876.39491,322.41013 L 887.91448,324.29088 L 895.67256,325.23125 L 902.72536,329.93312 L 908.1325,331.10858 L 911.18871,334.16479 L 911.18871,337.69119 L 917.30114,338.16138 L 922.94337,340.27722 L 930.93655,340.27722 L 929.99617,342.39306 L 928.35052,345.21418 L 923.88375,344.2738 C 923.88375,344.2738 922.003,342.39306 920.82754,342.39306 C 919.65207,342.39306 914.71511,342.15797 914.71511,342.15797 L 909.77815,345.21418 L 904.6061,345.44927 L 905.07629,343.09834 L 908.36759,338.16138 L 906.72194,335.34026 L 901.54989,332.98933 L 894.73218,329.22784 L 889.79523,327.112 L 882.50734,327.58218 L 878.98094,326.64181 L 872.86851,327.58218 L 867.69646,330.4033 L 866.2859,333.69461 L 859.93838,336.04554 L 855.23652,336.98591 L 850.76975,347.09492 L 851.00484,351.5617 L 860.17348,355.55828 L 865.11044,358.61449 L 873.80889,359.55487 L 878.74584,363.31636 L 885.79864,365.4322 L 891.20579,365.90238 L 892.85144,370.83934 L 891.91107,374.13065 L 896.84802,379.77288 L 896.84802,384.00456 L 893.08653,391.05736 L 889.08995,395.99432 L 886.50392,402.57693 L 883.21262,407.98407 L 881.80206,411.27538 L 881.56696,415.27197 L 875.45454,421.85458 L 868.87193,421.85458 L 866.05081,423.73532 L 861.81913,425.85116 L 859.4682,429.84775 L 856.64708,432.90396 L 853.59087,434.54961 L 850.06447,433.60924 L 844.42223,430.78812 L 844.65732,427.49681 L 842.0713,423.97042 L 846.06788,425.85116 L 847.94863,421.38439 L 850.76975,419.97383 L 851.00484,425.85116 L 852.4154,427.73191 L 858.29273,421.85458 L 864.87534,418.79836 L 873.10361,416.68253 L 876.39491,411.98066 L 882.27224,408.92445 L 888.85485,395.52413 L 895.20237,387.76606 L 896.84802,382.12382 L 896.14274,379.3027 L 891.67597,374.60083 L 890.50051,372.2499 L 885.09336,367.07785 L 881.80206,366.84276 L 879.68622,368.7235 L 875.68963,368.01822 L 873.80889,363.55145 L 870.75267,362.14089 L 863.69988,361.6707 L 858.99801,360.49524 L 855.47161,359.08468 L 851.71012,356.96884 L 846.77316,354.853 L 842.54148,353.67753 L 841.36602,352.50207 L 841.60111,348.0353 L 846.53807,343.56852 L 849.82937,339.57194 L 852.18031,335.81045 L 864.87534,333.45951 L 867.93155,330.4033 L 868.63683,328.99274 L 865.58062,326.17162 L 859.93838,323.5856 L 858.52782,319.82411 L 864.40516,318.17845 L 864.64025,314.88715 L 864.64025,313.0064" id="path6738" sodipodi:nodetypes="cccccccccccccccsccccccccccccccccccccccccccccccccccccccccccccccccccccccccccccccccccccccccccccccccccccccc"/>
    <path style="opacity: 0.86; fill: none; fill-opacity: 0.497268; fill-rule: nonzero; stroke: rgb(4, 17, 224); stroke-width: 1; stroke-linecap: round; stroke-linejoin: round; stroke-miterlimit: 2; stroke-dasharray: none; stroke-dashoffset: 0pt; stroke-opacity: 1; display: inline;" d="M 843.48186,431.02321 L 838.5449,434.31452 L 835.95887,438.3111 L 832.66757,436.19526 L 827.73061,434.54961 L 823.02874,435.72508 L 819.73744,439.72166 L 817.38651,445.83409 L 815.97595,451.47633 L 818.32688,457.82384 L 818.32688,462.9959 L 823.02874,467.22757 L 826.08496,468.16794 L 826.55514,474.28037 L 829.14117,478.98224 L 830.55173,482.74373 L 831.25701,487.2105 L 832.43247,490.26671 L 836.89925,491.91236 L 841.60111,496.14404 L 843.48186,502.49156 L 842.30639,507.19343 L 839.48527,509.30927 L 838.07471,512.36548 L 838.77999,517.30244 L 841.13092,520.12355" id="path7625" sodipodi:nodetypes="cccccccccccccccccccccccccc"/>
    <path style="opacity: 0.86; fill: rgb(153, 182, 173); fill-opacity: 1; fill-rule: nonzero; stroke: rgb(4, 17, 224); stroke-width: 1; stroke-linecap: round; stroke-linejoin: round; stroke-miterlimit: 2; stroke-dasharray: none; stroke-dashoffset: 0pt; stroke-opacity: 1; display: inline;" d="M 841.60111,520.12355 L 841.36602,522.47449 L 837.83962,524.12014 L 836.66415,529.99747 L 835.25359,534.69934 L 840.66074,540.57667 L 848.65391,545.04344 L 852.88559,546.454 L 855.47161,545.04344 L 859.70329,548.80493 L 863.69988,549.51021 L 863.69988,551.62605 L 860.64366,553.2717 L 855.9418,554.44717 L 853.12068,554.44717 L 851.47503,557.73847 L 847.71353,557.03319 L 845.12751,552.56642 L 844.42223,548.80493 L 840.66074,546.92419 L 837.36943,545.98381 L 833.84303,542.22232 L 830.55173,537.52046 L 830.31663,531.87822 L 833.84303,525.06051 L 837.36943,520.12355 L 841.60111,520.12355 z " id="path7627"/>
    <path style="opacity: 0.86; fill: none; fill-opacity: 0.497268; fill-rule: nonzero; stroke: rgb(4, 17, 224); stroke-width: 1; stroke-linecap: round; stroke-linejoin: round; stroke-miterlimit: 2; stroke-dasharray: none; stroke-dashoffset: 0pt; stroke-opacity: 1; display: inline;" d="M 864.40516,550.92077 L 871.69305,551.15586 L 877.10019,547.86456 L 881.09678,546.454 L 887.91448,547.15928 C 887.91448,547.15928 893.08653,547.86456 894.262,548.33474 C 895.43746,548.80493 917.53623,553.03661 917.53623,553.03661 L 927.17505,555.38754 L 938.69462,557.26829 L 941.51574,561.26487 L 941.98593,567.61239 L 949.27377,572.54935 L 952.09497,572.78444 L 975.83937,594.88321 L 977.48497,600.29035 L 979.60087,606.16768 L 986.18347,610.86955 L 988.76947,615.80651 L 989.47477,618.86272 L 992.29587,623.56458 L 998.17317,625.21024 L 1000.9944,628.73664 L 1004.2857,632.73322 L 1008.0472,632.96831 L 1008.9875,635.55434 L 1011.1034,643.07732 L 1012.0437,648.71956 L 1022.858,652.48105 L 1028.5003,651.54068 L 1028.2652,645.42826 L 1032.4969,647.309 L 1034.8478,646.60372 L 1040.7251,645.89844 L 1041.9006,644.25279 L 1043.3111,647.309 L 1050.1289,646.36863 L 1051.5394,643.07732 L 1058.122,643.07732 L 1062.3537,640.4913 L 1063.2941,637.90527 L 1068.9363,641.19658 L 1072.6978,641.19658" id="path7629"/>
    <path style="opacity: 0.86; fill: none; fill-opacity: 1; fill-rule: nonzero; stroke: rgb(8, 35, 201); stroke-width: 1; stroke-linecap: round; stroke-linejoin: round; stroke-miterlimit: 2; stroke-dasharray: none; stroke-dashoffset: 0pt; stroke-opacity: 1; display: inline;" d="M 864.64025,313.0064 L 863.46478,312.53622 L 863.93497,306.89398 L 860.40857,305.9536 L 845.12751,293.25857 L 843.48186,289.02689 L 847.47844,284.32503 L 850.76975,284.08993 L 864.17006,278.2126 L 877.10019,272.57036 L 887.44429,273.27564 L 908.83778,265.04738 L 919.18188,269.04396 L 927.17505,272.80546 L 939.16481,273.04055 L 945.04214,267.63341 L 948.80367,260.11042 L 948.80367,254.46818 L 944.10177,249.53122 L 946.68779,245.06445 L 956.32657,243.4188 L 989.00457,242.94861 L 996.29247,241.77315 L 1002.8751,239.8924 L 1009.2226,234.95544 L 1011.5736,232.13432 L 1020.7422,221.32003" id="path10294"/>
    <path style="opacity: 0.86; fill: rgb(62, 150, 63); fill-opacity: 1; fill-rule: nonzero; stroke: none; stroke-width: 1; stroke-linecap: round; stroke-linejoin: round; stroke-miterlimit: 2; stroke-dasharray: none; stroke-dashoffset: 0pt; stroke-opacity: 1; display: inline;" d="M 217.94715,479.97511 L 220.2623,478.87266 L 221.36475,481.07757 C 221.36475,481.07757 221.08914,483.28247 221.30963,483.44784 C 221.53012,483.61321 222.52233,484.66054 222.52233,484.66054 C 222.52233,484.66054 222.41208,486.25909 222.19159,486.25909 C 221.9711,486.25909 219.43546,486.0386 219.43546,486.0386 L 216.8447,484.05419 L 214.97053,483.39272 L 217.06519,481.84928 L 217.94715,479.97511 z " id="path15645"/>
    <path style="opacity: 0.86; fill: none; fill-opacity: 1; fill-rule: nonzero; stroke: rgb(46, 73, 201); stroke-width: 1; stroke-linecap: round; stroke-linejoin: round; stroke-miterlimit: 2; stroke-dasharray: none; stroke-dashoffset: 0pt; stroke-opacity: 1; display: inline;" d="M 902.07392,355.54646 L 909.66258,355.54646 L 914.30009,352.59532 L 917.25123,356.38964 L 924.83988,364.39989 L 937.90923,362.71352 L 944.6547,367.35103 L 952.66497,374.93968 L 954.35127,379.57719 L 954.77287,387.58744 L 953.92967,396.86246 L 963.62637,399.8136 L 977.96047,398.97042 L 984.70587,398.54882 L 986.81387,402.34315 L 994.82417,398.12723 L 999.04007,398.54882 L 1001.148,402.34315 L 1003.256,403.18633 L 1009.5799,401.49997 L 1013.3742,401.92156 L 1015.4821,404.45111 L 1026.4435,405.71588 L 1040.7777,401.07837 L 1045.4152,401.49997 L 1053.847,410.35339 L 1055.1118,415.83409 L 1057.2197,420.89319 L 1059.3277,423.42274 L 1066.9163,423.42274 L 1071.5539,426.79547 L 1081.2505,433.11935 L 1083.3584,444.92392 L 1085.888,450.82621 L 1091.7903,457.15008 L 1095.7304,463.48972 L 1104.438,467.68988 L 1118.6263,474.70328 L 1116.6642,479.91604 L 1111.6051,486.66151 L 1117.5074,489.61265 L 1120.0133,487.62683 L 1128.8194,495.75134 L 1138.9298,502.96962 L 1147.7733,515.96017 L 1152.0779,530.08547 L 1152.0779,534.72298 L 1148.7052,543.998 L 1148.8351,552.14614 L 1146.5972,556.64575 L 1150.8131,565.49918 L 1151.2347,570.13669 L 1156.2938,573.50942 L 1160.5097,582.78444 L 1171.4711,594.58901 L 1168.9416,603.02085 L 1176.1086,612.29587 L 1179.903,618.19815 L 1184.1189,624.94362 L 1187.4916,633.37546 L 1195.9234,653.19027" id="path12070" sodipodi:nodetypes="ccccccccccccccccccccccccccccccccccccccccccccccccccccccccccccc"/>
    <path style="fill: rgb(203, 147, 85); fill-opacity: 1; fill-rule: nonzero; stroke: none; stroke-width: 0.5; stroke-linecap: round; stroke-linejoin: round; stroke-miterlimit: 2; stroke-dasharray: none; stroke-dashoffset: 0pt; stroke-opacity: 1; display: inline;" d="M 645.88401,-32.491359 L 644.82018,656.87034" id="path22802"/>
    <path style="fill: none; fill-opacity: 1; fill-rule: nonzero; stroke: rgb(28, 70, 167); stroke-width: 0.5; stroke-linecap: round; stroke-linejoin: round; stroke-miterlimit: 2; stroke-dasharray: none; stroke-dashoffset: 0pt; stroke-opacity: 1; display: inline;" d="M 700.25293,117.465 L 698.64815,123.08173 L 698.64815,126.2913 L 694.63619,131.10564 L 694.63619,137.52476 L 693.43261,142.33911 L 687.81587,145.94987 L 680.59435,147.95584 L 676.18121,150.36302 L 670.56447,151.9678 L 663.74415,155.17736 L 659.331,155.17736 L 656.92383,150.36302 L 655.31905,144.34509 L 650.5047,143.54269 L 646.89395,147.15345 L 643.28319,149.96182 L 640.07363,155.57855 L 637.26526,159.18931 L 633.25331,161.19529 L 629.24135,161.99768 L 617.20549,164.00366 L 616.4031,165.60844 L 621.61864,167.21322 L 624.42701,169.2192 C 624.42701,169.2192 624.8282,171.22517 626.43298,172.42876 C 628.03777,173.63234 629.24135,173.63234 629.24135,173.63234 L 633.25331,173.63234 L 636.06167,176.84191 L 638.87004,183.66223 L 636.06167,187.27299 L 631.64852,190.08135 L 629.64255,194.09331 L 628.84016,196.50048 L 619.21147,199.71004 L 605.97202,207.73395 L 595.94214,210.54232 L 591.93019,214.15307 L 588.31943,217.76383 L 579.09193,218.16503 L 575.30479,219.78809 L 573.4752,220.5722 L 567.85847,226.59013 L 563.04412,233.00925 L 559.83456,238.62599 L 558.22978,243.44033 L 557.42739,249.85946 L 555.42141,253.47022 L 557.82858,258.28456 L 559.83456,267.91325 L 557.42739,273.52998 L 554.61902,279.54791 L 555.42141,288.77541 L 557.82858,294.39214 L 559.43336,298.0029 L 563.04412,298.80529" id="path23889" sodipodi:nodetypes="cccccccccccccccccccccccccscccccccccccccccccccccccccccccc"/>
    <path style="fill: none; fill-opacity: 1; fill-rule: nonzero; stroke: rgb(17, 53, 186); stroke-width: 0.5; stroke-linecap: round; stroke-linejoin: round; stroke-miterlimit: 2; stroke-dasharray: none; stroke-dashoffset: 0pt; stroke-opacity: 1; display: inline;" d="M 593.13377,316.45788 L 599.1517,318.46386 L 605.16963,326.08657 L 617.60669,333.30809 L 625.2294,336.51765 L 635.25928,338.12243 L 645.28917,338.52363 L 652.91188,333.70928 L 660.53459,329.29614 L 664.14535,324.48179 L 670.16328,322.47581 L 683.00153,314.45191 L 690.62424,313.64952 L 694.63619,309.63756 L 697.44456,307.23039 L 703.86368,300.41007 L 712.28879,294.79334 L 717.50433,288.37421 L 724.72584,282.35628 L 727.13301,277.14074 L 732.34855,271.9252 L 740.37246,268.31444 L 745.98919,265.50608 L 753.61191,265.10488 L 758.02505,265.10488 L 762.4382,264.30249 L 773.27048,256.67978 L 780.49199,255.075 L 792.52785,254.27261 L 800.95296,251.86544 L 809.77925,249.05707 L 816.59957,248.25468 L 822.21631,247.85348 L 829.83902,250.26065 L 833.44978,251.86544" id="path24776"/>
    <path style="fill: rgb(156, 184, 176); fill-opacity: 1; fill-rule: nonzero; stroke: rgb(28, 70, 167); stroke-width: 0.5; stroke-linecap: round; stroke-linejoin: round; stroke-miterlimit: 2; stroke-dasharray: none; stroke-dashoffset: 0pt; stroke-opacity: 1; display: inline;" d="M 563.10851,298.90435 L 562.18725,299.51853 L 560.49826,299.51853 L 560.1144,301.13074 C 560.1144,301.13074 562.0337,301.59137 562.34079,301.59137 C 562.64788,301.59137 563.10851,302.81972 563.10851,302.81972 L 561.18921,303.12681 L 560.34472,303.74098 C 560.34472,303.74098 560.34472,305.27642 560.72858,305.27642 C 561.11244,305.27642 563.72269,305.42997 563.72269,305.42997 L 573.08886,311.03432 L 575.77588,311.64849 C 575.77588,311.64849 578.92353,312.87684 579.30739,312.95362 C 579.69125,313.03039 587.06136,316.02449 587.75231,316.10127 C 588.44325,316.17804 593.35666,316.40835 593.35666,316.40835 L 593.89406,316.40835 L 591.89799,313.10716 C 591.89799,313.10716 589.21097,312.1859 588.75034,311.95558 C 588.28971,311.72527 586.14009,310.804 585.2956,310.57369 C 584.45111,310.34337 582.3015,310.11305 581.61055,309.88274 C 580.9196,309.65242 578.53967,308.73116 577.9255,308.3473 C 577.31132,307.96344 575.85265,307.19572 575.85265,307.19572 L 574.01013,305.81383 L 571.93728,301.05397 L 568.25223,300.59333 L 566.71679,298.05986 L 564.56718,295.52638 L 563.33883,296.2941 L 563.03174,298.2134 L 563.10851,298.90435 z " id="path24784"/>
    <path style="fill: none; fill-opacity: 1; fill-rule: nonzero; stroke: rgb(48, 60, 203); stroke-width: 1; stroke-linecap: round; stroke-linejoin: round; stroke-miterlimit: 2; stroke-dasharray: none; stroke-dashoffset: 0pt; stroke-opacity: 1; display: inline;" d="M 344.832,365.59374 L 345.76187,363.26908 L 347.38913,365.36127 L 346.9242,367.45347 L 342.97227,370.24307 C 342.97227,370.24307 341.80994,371.17294 339.9502,372.1028 C 338.09047,373.03267 337.62554,372.1028 337.62554,372.1028 L 334.13854,372.33527 L 328.32688,374.42747 L 326.00221,376.51967 L 323.67755,376.75213 C 323.67755,376.75213 322.74768,378.61187 322.28275,379.54173 C 321.81782,380.4716 319.02822,379.54173 319.02822,379.54173 L 316.93602,375.12487 L 315.54122,369.08074 L 312.28669,367.22101 L 306.93996,368.61581 L 304.84776,372.8002 L 300.66336,373.4976 L 295.08417,374.8924 L 290.89977,378.14693 L 290.89977,383.2612 L 290.20237,386.28326 L 286.01797,386.98066 L 280.43878,386.51573 L 276.71931,385.12093 L 273.23232,387.67806 L 269.28039,388.84039 L 262.30639,388.84039 L 255.79733,390.23519 L 253.47266,389.30533 L 248.82333,389.30533 L 241.3844,392.55986 L 231.85328,392.55986 L 220.69489,393.25726 L 209.76896,392.55986 L 203.9573,394.65205 L 203.72483,399.76632 L 202.09756,403.95072 L 198.84303,406.97278 L 197.6807,410.69224 L 194.33423,412.8593 L 192.38388,415.45978 L 193.75635,418.85484 L 193.2507,420.80519 L 193.10623,422.90002" id="path2157"/>
    <path style="fill: none; fill-opacity: 1; fill-rule: nonzero; stroke: rgb(48, 60, 203); stroke-width: 1; stroke-linecap: round; stroke-linejoin: round; stroke-miterlimit: 2; stroke-dasharray: none; stroke-dashoffset: 0pt; stroke-opacity: 1; display: inline;" d="M 398.66573,154.48263 L 398.36103,160.27197 L 395.00931,163.31898 L 392.87639,165.1472 L 396.53282,166.6707 L 396.53282,171.24123 L 393.18109,174.28825 L 390.43878,177.33527 L 387.69646,180.68699 L 387.39176,184.03871 L 384.34474,187.39043 L 381.90713,190.43745 L 380.68832,194.70328 L 379.16481,197.75029 L 374.28958,200.79731 L 367.89084,203.84433 L 362.71091,204.75844 L 362.40621,208.41486 L 365.75793,212.07128 L 365.75793,218.47002 L 370.32845,225.17346 L 374.28958,229.13459 C 374.28958,229.13459 374.59428,231.2675 377.6413,232.18161 C 380.68832,233.09571 383.12593,233.09571 383.12593,233.09571 C 383.12593,233.09571 382.82123,235.22862 384.64944,235.53333 C 386.47765,235.83803 390.74348,236.14273 392.57169,236.44743 C 394.3999,236.75213 395.00931,237.36154 397.75162,236.44743 C 400.49394,235.53333 405.36917,233.70512 405.36917,233.70512 C 405.36917,233.70512 407.50208,232.79101 409.02559,233.40041 C 410.5491,234.00982 411.1585,236.44743 411.1585,236.44743 C 411.1585,236.44743 411.46321,237.05684 414.20552,237.05684 C 416.94784,237.05684 416.94784,236.75213 421.51837,237.05684 C 426.0889,237.36154 426.0889,237.36154 427.61241,237.36154 C 429.13591,237.36154 427.91711,237.66624 430.65942,237.36154 C 433.40174,237.05684 433.40174,236.44743 438.58167,236.75213 C 443.7616,237.05684 441.62869,237.05684 444.37101,237.66624 C 447.11332,238.27564 443.4569,238.27564 447.41803,238.27564 C 451.37915,238.27564 453.81677,238.27564 455.03557,238.27564 C 456.25438,238.27564 455.94968,237.66624 457.77789,238.88505 C 459.6061,240.10385 458.692,240.40856 458.9967,242.84617 C 459.3014,245.28379 458.9967,245.89319 460.52021,247.4167 C 462.04372,248.94021 460.82491,249.85431 462.95782,250.76842 C 465.09073,251.68253 465.09073,251.37782 466.91895,252.59663 C 468.74716,253.81544 469.66126,255.33895 469.66126,255.33895 L 472.09888,259.90948 C 472.09888,259.90948 472.70828,265.08941 472.70828,266.61292 C 472.70828,268.13643 472.40358,272.09755 472.40358,273.31636 C 472.40358,274.53516 471.48947,279.41039 471.48947,279.41039 C 471.48947,279.41039 473.62239,283.67622 472.40358,284.89503 C 471.18477,286.11384 471.48947,287.63735 471.79418,288.85615 C 472.09888,290.07496 473.31769,292.20787 473.31769,292.20787 L 475.1459,294.95019 C 475.1459,294.95019 475.7553,295.8643 474.84119,297.0831 C 473.92709,298.30191 470.57537,299.52072 470.57537,299.52072 L 466.30954,302.26303 C 466.30954,302.26303 464.48133,303.48184 462.65312,304.09125 C 460.82491,304.70065 458.08259,305.31005 458.08259,305.31005 L 454.42617,302.87244 C 454.42617,302.87244 451.98855,300.13012 450.76975,300.13012 C 449.55094,300.13012 447.41803,301.65363 447.41803,301.65363 C 447.41803,301.65363 445.58982,301.34893 443.7616,300.73953 C 441.93339,300.13012 438.27697,298.30191 438.27697,298.30191 C 438.27697,298.30191 438.58167,296.169 435.83936,295.55959 C 433.09704,294.95019 431.57353,294.03608 431.57353,294.03608 L 433.40174,290.98907 C 433.40174,290.98907 430.96413,287.94205 429.74532,287.33264 C 428.52651,286.72324 424.87009,283.98092 424.87009,283.98092 L 421.82307,278.19159 C 421.82307,278.19159 423.34658,274.83987 421.21367,275.14457 C 419.08075,275.44927 417.55724,275.44927 417.55724,275.44927 L 416.94784,271.18344 L 414.20552,269.05053 L 408.72089,268.13643" id="path3045"/>
    <path style="fill: none; fill-opacity: 1; fill-rule: nonzero; stroke: rgb(48, 60, 203); stroke-width: 1; stroke-linecap: round; stroke-linejoin: round; stroke-miterlimit: 2; stroke-dasharray: none; stroke-dashoffset: 0pt; stroke-opacity: 1; display: inline;" d="M 470.57537,256.25305 L 475.1459,256.55775 L 480.93523,249.24491 L 487.02927,252.29193 L 492.2092,254.12014 L 493.42801,257.77656 L 496.17033,256.25305 L 499.21734,252.90133 L 501.65496,247.7214 L 505.92078,245.58849 L 512.31952,245.89319 L 516.58535,249.54961 L 522.37469,251.98723 L 526.33581,249.54961 L 527.55462,245.58849 L 531.21104,241.01796 L 532.73455,237.66624 L 532.12515,230.9628 C 532.12515,230.9628 533.34395,229.43929 533.64865,227.61108 C 533.95336,225.78287 533.34395,220.90764 533.95336,219.07943 C 534.56276,217.25121 537.60978,213.29009 537.91448,212.07128 C 538.21918,210.85248 536.08627,206.89135 536.08627,206.89135 L 533.03925,199.57851 L 539.13329,196.53149 L 543.39911,193.78917 L 546.14143,190.43745 L 547.66494,187.08573 L 551.62606,185.86692 L 552.84487,182.8199 L 558.93891,180.68699 L 562.90003,179.46818 L 564.42354,177.03057 L 569.90818,176.72587 L 572.34579,178.55408 L 576.61162,178.24938 L 581.18215,175.20236 L 587.58088,174.59295 L 591.84671,173.98355 L 593.97962,170.02243 L 598.24545,167.58481 L 600.68306,166.366 L 604.03479,166.366 L 613.48054,162.10018 L 617.74637,164.23309" id="path3047"/>
    <path style="fill: none; fill-opacity: 1; fill-rule: nonzero; stroke: rgb(48, 60, 203); stroke-width: 1; stroke-linecap: round; stroke-linejoin: round; stroke-miterlimit: 2; stroke-dasharray: none; stroke-dashoffset: 0pt; stroke-opacity: 1; display: inline;" d="M 550.71196,135.28641 L 559.24361,134.67701 L 563.50944,133.7629 L 566.86116,134.37231 L 571.43169,134.37231 C 571.43169,134.37231 572.65049,136.20052 574.174,136.20052 C 575.69751,136.20052 578.74453,136.20052 578.74453,136.20052 C 578.74453,136.20052 580.57274,137.72403 581.79155,136.80992 C 583.01036,135.89582 585.14327,134.06761 585.14327,134.06761 C 585.14327,134.06761 587.58088,133.4582 589.10439,133.7629 C 590.6279,134.06761 594.89373,134.98171 594.89373,134.98171 L 598.85485,134.98171 L 606.1677,127.97357 L 615.91816,124.92655 L 621.70749,124.31715 L 627.19213,126.45006 L 629.93444,129.80178 L 633.28616,131.02059 C 633.28616,131.02059 636.02848,131.62999 636.33318,132.8488 C 636.63788,134.06761 636.94259,135.28641 636.94259,135.28641 L 639.6849,136.50522 C 639.6849,136.50522 640.90371,136.80992 642.12252,137.41933 C 643.34133,138.02873 644.56013,139.55224 645.77894,139.55224 C 646.99775,139.55224 651.56828,140.16164 651.56828,140.16164 L 652.48238,141.68515 L 654.00589,143.81806" id="path3049"/>
    <path style="fill: none; fill-opacity: 1; fill-rule: nonzero; stroke: rgb(48, 60, 203); stroke-width: 1; stroke-linecap: round; stroke-linejoin: round; stroke-miterlimit: 2; stroke-dasharray: none; stroke-dashoffset: 0pt; stroke-opacity: 1; display: inline;" d="M 658.88112,305.61476 L 647.60715,303.48184 L 641.81782,300.73953 L 636.94259,298.30191 L 634.20027,294.64549 L 632.67676,289.77026 L 631.15325,283.98092 L 630.84855,279.10569 L 626.27802,276.36338 C 626.27802,276.36338 622.6216,273.62106 621.40279,273.62106 C 620.18398,273.62106 617.13697,273.01166 617.13697,273.01166 L 616.83226,269.65994 L 614.39465,268.13643 L 610.12882,267.22232 L 606.7771,267.22232 L 603.12068,266.00351 L 597.94075,260.21418 L 594.28433,259.90948 L 593.37022,255.33895 L 591.54201,250.76842 C 591.54201,250.76842 591.54201,246.19789 592.45611,244.97908 C 593.37022,243.76028 595.19843,241.32266 595.19843,241.32266 L 595.19843,237.97094 L 591.54201,234.00982 L 593.06552,231.2675 L 595.19843,224.86876 L 595.80783,220.90764 C 595.80783,220.90764 594.89373,218.47002 596.11254,217.55592 C 597.33134,216.64181 600.07366,214.5089 600.07366,214.5089 L 600.07366,211.15718 L 600.98777,209.02426" id="path3051"/>
    <g id="g15436" transform="translate(-57.0653, 0.646891)">
      <g transform="translate(85.5784, -69.6239)" id="g18308">
        <rect style="opacity: 1; fill: rgb(255, 251, 251); fill-opacity: 1; fill-rule: nonzero; stroke: black; stroke-width: 0.5; stroke-linecap: round; stroke-linejoin: round; stroke-miterlimit: 2; stroke-dasharray: none; stroke-dashoffset: 0pt; stroke-opacity: 1;" id="rect17419" width="67.530556" height="5.8057947" x="77.308739" y="672.09393"/>
        <rect style="opacity: 1; fill: black; fill-opacity: 1; fill-rule: nonzero; stroke: black; stroke-width: 0.5; stroke-linecap: round; stroke-linejoin: round; stroke-miterlimit: 2; stroke-dasharray: none; stroke-dashoffset: 0pt; stroke-opacity: 1;" id="rect17421" width="67.683342" height="5.6530104" x="144.99208" y="672.09393"/>
      </g>
      <text sodipodi:linespacing="100%" id="text18312" y="629.055" x="158.151" style="font-size: 22px; font-style: normal; font-variant: normal; font-weight: normal; font-stretch: normal; text-align: start; line-height: 100%; text-anchor: start; fill: black; fill-opacity: 1; fill-rule: nonzero; stroke: black; stroke-width: 0.5; stroke-linecap: round; stroke-linejoin: round; stroke-miterlimit: 2; stroke-dasharray: none; stroke-dashoffset: 0pt; stroke-opacity: 1; font-family: Arial;" xml:space="preserve"><tspan y="629.055" x="158.151" id="tspan18314" sodipodi:role="line">0</tspan></text>
      <text sodipodi:linespacing="100%" id="text18316" y="629.36" x="211.472" style="font-size: 22px; font-style: normal; font-variant: normal; font-weight: normal; font-stretch: normal; text-align: start; line-height: 100%; text-anchor: start; fill: black; fill-opacity: 1; fill-rule: nonzero; stroke: black; stroke-width: 0.5; stroke-linecap: round; stroke-linejoin: round; stroke-miterlimit: 2; stroke-dasharray: none; stroke-dashoffset: 0pt; stroke-opacity: 1; font-family: Arial;" xml:space="preserve"><tspan y="629.36" x="211.472" id="tspan18318" sodipodi:role="line">100</tspan></text>
      <text sodipodi:linespacing="100%" id="text18320" y="629.666" x="278.85" style="font-size: 22px; font-style: normal; font-variant: normal; font-weight: normal; font-stretch: normal; text-align: start; line-height: 100%; text-anchor: start; fill: black; fill-opacity: 1; fill-rule: nonzero; stroke: black; stroke-width: 0.5; stroke-linecap: round; stroke-linejoin: round; stroke-miterlimit: 2; stroke-dasharray: none; stroke-dashoffset: 0pt; stroke-opacity: 1; font-family: Arial;" xml:space="preserve"><tspan y="629.666" x="278.85" id="tspan18322" sodipodi:role="line">200</tspan></text>
    </g>
    <path style="fill: none; fill-opacity: 1; fill-rule: nonzero; stroke: rgb(55, 91, 187); stroke-width: 0.7; stroke-linecap: round; stroke-linejoin: round; stroke-miterlimit: 2; stroke-dasharray: none; stroke-dashoffset: 0pt; stroke-opacity: 1;" d="M 1154.9789,388.02325 L 1150.3841,390.68337 L 1146.2731,391.16702 L 1140.9528,388.50691 L 1138.7764,384.15399 L 1138.5345,377.62461 L 1132.4888,377.38278 L 1128.1359,378.83376 L 1122.5738,386.33045 L 1120.881,386.81411 L 1119.9137,388.99056 L 1119.9137,392.85982 L 1117.7373,394.3108 L 1106.6131,394.55262 L 1101.7766,396.0036 L 1090.8943,396.24543 L 1089.4433,395.51994 L 1062.6003,395.03628 L 1059.9402,396.48725 L 1057.5219,398.90554 C 1057.5219,398.90554 1055.5873,399.3892 1054.62,399.63103 C 1053.6527,399.87286 1051.4762,400.84017 1051.4762,400.84017 L 1048.8161,404.70943 L 1043.4958,411.72246 L 1043.8949,418.71475" id="path15493" sodipodi:nodetypes="ccccccccccccccccccccscccc"/>
    <path style="fill: none; fill-opacity: 1; fill-rule: nonzero; stroke: rgb(222, 222, 222); stroke-width: 1; stroke-linecap: round; stroke-linejoin: round; stroke-miterlimit: 2; stroke-dasharray: 2, 4; stroke-dashoffset: 0pt; stroke-opacity: 1;" d="M 371.17385,26.576879 L 336.30951,689.44269" id="path2182" sodipodi:nodetypes="cc"/>
    <path style="fill: none; fill-opacity: 1; fill-rule: nonzero; stroke: rgb(222, 222, 222); stroke-width: 1; stroke-linecap: round; stroke-linejoin: round; stroke-miterlimit: 2; stroke-dasharray: 2, 4; stroke-dashoffset: 0pt; stroke-opacity: 1;" d="M 1025.8758,40.777072 L 1070.3521,599.01716" id="path3070" sodipodi:nodetypes="cc"/>
    <path style="fill: none; fill-opacity: 1; fill-rule: nonzero; stroke: rgb(222, 222, 222); stroke-width: 1; stroke-linecap: round; stroke-linejoin: round; stroke-miterlimit: 2; stroke-dasharray: 2, 4; stroke-dashoffset: 0pt; stroke-opacity: 1;" d="M 1242.6926,522.42142 C 1242.6926,522.42142 922.47974,554.60227 636.30951,556.46397 C 350.13929,558.32567 98.011638,529.86823 98.011638,529.86823" id="path3072" sodipodi:nodetypes="czc"/>
    <text xml:space="preserve" style="font-size: 22px; font-style: italic; font-variant: normal; font-weight: normal; font-stretch: normal; text-align: start; line-height: 100%; text-anchor: start; fill: white; fill-opacity: 1; fill-rule: nonzero; stroke: none; stroke-width: 1; stroke-linecap: round; stroke-linejoin: round; stroke-miterlimit: 2; stroke-dasharray: none; stroke-dashoffset: 0pt; stroke-opacity: 1; font-family: Arial;" x="20.1596" y="218.891" id="text2173" sodipodi:linespacing="100%"><tspan sodipodi:role="line" id="tspan2175" x="20.1596" y="218.891">40</tspan></text>
    <text xml:space="preserve" style="font-size: 22px; font-style: italic; font-variant: normal; font-weight: normal; font-stretch: normal; text-align: start; line-height: 100%; text-anchor: start; fill: white; fill-opacity: 1; fill-rule: nonzero; stroke: none; stroke-width: 1; stroke-linecap: round; stroke-linejoin: round; stroke-miterlimit: 2; stroke-dasharray: none; stroke-dashoffset: 0pt; stroke-opacity: 1; font-family: Arial;" x="86.9724" y="524.617" id="text3062" sodipodi:linespacing="100%"><tspan sodipodi:role="line" id="tspan3064" x="86.9724" y="524.617">36</tspan></text>
    <text xml:space="preserve" style="font-size: 22px; font-style: italic; font-variant: normal; font-weight: normal; font-stretch: normal; text-align: start; line-height: 100%; text-anchor: start; fill: white; fill-opacity: 1; fill-rule: nonzero; stroke: none; stroke-width: 1; stroke-linecap: round; stroke-linejoin: round; stroke-miterlimit: 2; stroke-dasharray: none; stroke-dashoffset: 0pt; stroke-opacity: 1; font-family: Arial;" x="359.016" y="21.1512" id="text3066" sodipodi:linespacing="100%"><tspan sodipodi:role="line" id="tspan3068" x="359.016" y="21.1512">30</tspan></text>
    <text xml:space="preserve" style="font-size: 22px; font-style: italic; font-variant: normal; font-weight: normal; font-stretch: normal; text-align: start; line-height: 100%; text-anchor: start; fill: white; fill-opacity: 1; fill-rule: nonzero; stroke: none; stroke-width: 1; stroke-linecap: round; stroke-linejoin: round; stroke-miterlimit: 2; stroke-dasharray: none; stroke-dashoffset: 0pt; stroke-opacity: 1; font-family: Arial;" x="1007.05" y="35.0746" id="text3070" sodipodi:linespacing="100%"><tspan sodipodi:role="line" id="tspan3072" x="1007.05" y="35.0746">42</tspan></text>
    <text xml:space="preserve" style="font-size: 20.457px; font-style: normal; font-weight: normal; fill: black; fill-opacity: 1; stroke: none; stroke-width: 1px; stroke-linecap: butt; stroke-linejoin: miter; stroke-opacity: 1; font-family: Bitstream Vera Sans;" x="272.677" y="81.2791" id="text13566"><tspan sodipodi:role="line" id="tspan13568" x="272.677" y="81.2791">Black Sea</tspan></text>
    <text xml:space="preserve" style="font-size: 20.457px; font-style: normal; font-weight: normal; line-height: 125%; fill: black; fill-opacity: 1; stroke: none; stroke-width: 1px; stroke-linecap: butt; stroke-linejoin: miter; stroke-opacity: 1; display: inline; font-family: Bitstream Vera Sans;" x="67.2696" y="273.009" id="text13570" sodipodi:linespacing="125%"><tspan sodipodi:role="line" id="tspan13572" x="67.2696" y="273.009" style="text-align: center; line-height: 125%; text-anchor: middle;">Aegean</tspan><tspan sodipodi:role="line" x="67.2696" y="298.58" id="tspan13580" style="text-align: center; line-height: 125%; text-anchor: middle;">Sea</tspan></text>
    <text xml:space="preserve" style="font-size: 10.2852px; font-style: normal; font-weight: normal; line-height: 125%; fill: black; fill-opacity: 1; stroke: none; stroke-width: 1px; stroke-linecap: butt; stroke-linejoin: miter; stroke-opacity: 1; display: inline; font-family: Bitstream Vera Sans;" x="260.16" y="171.299" id="text13574" sodipodi:linespacing="125%"><tspan sodipodi:role="line" id="tspan13576" x="260.16" y="171.299" style="text-align: center; line-height: 125%; text-anchor: middle;">Sea of</tspan><tspan sodipodi:role="line" x="260.16" y="184.155" id="tspan13578" style="text-align: center; line-height: 125%; text-anchor: middle;">Marmara</tspan></text>
    <path style="fill: none; fill-opacity: 1; fill-rule: nonzero; stroke: white; stroke-width: 1; stroke-linecap: round; stroke-linejoin: round; stroke-miterlimit: 2; stroke-dasharray: 2, 4; stroke-dashoffset: 0pt; stroke-opacity: 1; display: inline;" d="M -6.6465049,222.80667 C -6.6465049,222.80667 365.56484,265.24057 651.20313,263.91078 C 936.84137,262.58099 1238.4372,227.74057 1238.4372,227.74057" id="path13628" sodipodi:nodetypes="czc"/>
    <text xml:space="preserve" style="font-size: 26.2982px; font-style: normal; font-weight: normal; fill: black; fill-opacity: 1; stroke: none; stroke-width: 1px; stroke-linecap: butt; stroke-linejoin: miter; stroke-opacity: 1; display: inline; font-family: Bitstream Vera Sans;" x="250.788" y="293.092" id="text1933"><tspan sodipodi:role="line" id="tspan1935" x="250.788" y="293.092">Turkey</tspan></text>
    <text xml:space="preserve" style="font-size: 10.2852px; font-style: normal; font-weight: normal; line-height: 125%; text-anchor: end; fill: black; fill-opacity: 1; stroke: none; stroke-width: 1px; stroke-linecap: butt; stroke-linejoin: miter; stroke-opacity: 1; display: inline; font-family: Bitstream Vera Sans;" x="304.167" y="150.937" id="text3711" sodipodi:linespacing="125%"><tspan sodipodi:role="line" x="304.167" y="150.937" id="tspan3715" style="line-height: 125%; text-anchor: end;">Istanbul</tspan></text>
    <text xml:space="preserve" style="font-size: 10.2852px; font-style: normal; font-weight: normal; line-height: 125%; fill: black; fill-opacity: 1; stroke: none; stroke-width: 1px; stroke-linecap: butt; stroke-linejoin: miter; stroke-opacity: 1; display: inline; font-family: Bitstream Vera Sans;" x="188.157" y="215.992" id="text3719" sodipodi:linespacing="125%"><tspan sodipodi:role="line" x="188.157" y="215.992" id="tspan3721" style="text-align: center; line-height: 125%; text-anchor: middle;">anakkale</tspan></text>
    <path sodipodi:type="arc" style="overflow: visible; marker: none; opacity: 0.86; color: black; fill: black; fill-opacity: 1; fill-rule: nonzero; stroke: none; stroke-width: 1; stroke-linecap: round; stroke-linejoin: round; stroke-miterlimit: 2; stroke-dasharray: none; stroke-dashoffset: 0pt; stroke-opacity: 1; visibility: visible; display: inline;" id="path3723" sodipodi:cx="471.28668" sodipodi:cy="223.59767" sodipodi:rx="5.3033009" sodipodi:ry="5.3033009" d="M 476.58998 223.59767 A 5.3033009 5.3033009 0 1 1  465.98338,223.59767 A 5.3033009 5.3033009 0 1 1  476.58998 223.59767 z" transform="matrix(0.566667, 0, 0, 0.566667, -109.372, 86.5501)"/>
    <path style="overflow: visible; marker: none; color: black; fill: black; fill-opacity: 1; fill-rule: nonzero; stroke: none; stroke-width: 1; stroke-linecap: square; stroke-linejoin: round; stroke-miterlimit: 2; stroke-dasharray: none; stroke-dashoffset: 0pt; stroke-opacity: 1; visibility: visible; display: inline;" d="M 310.25,156.375 L 309.78125,157.15625 L 309.78125,160 L 310.1875,162.34375 C 311.78961,162.27937 313.06251,160.96156 313.0625,159.34375 C 313.0625,157.74749 311.82213,156.47139 310.25,156.375 z " id="path6428"/>
  </g>
</svg>